<svg width="21" height="20" viewBox="0 0 21 20" fill="none" xmlns="http://www.w3.org/2000/svg">
<path d="M7.39091 13.2H13.7909V6.8H7.39091V13.2ZM10.5909 18C9.48425 18 8.44424 17.79 7.47091 17.37C6.49758 16.95 5.65091 16.38 4.93091 15.66C4.21091 14.94 3.64091 14.0933 3.22091 13.12C2.80091 12.1467 2.59091 11.1067 2.59091 10C2.59091 8.89333 2.80091 7.85333 3.22091 6.88C3.64091 5.90667 4.21091 5.06 4.93091 4.34C5.65091 3.62 6.49758 3.05 7.47091 2.63C8.44424 2.21 9.48425 2 10.5909 2C11.6976 2 12.7376 2.21 13.7109 2.63C14.6842 3.05 15.5309 3.62 16.2509 4.34C16.9709 5.06 17.5409 5.90667 17.9609 6.88C18.3809 7.85333 18.5909 8.89333 18.5909 10C18.5909 11.1067 18.3809 12.1467 17.9609 13.12C17.5409 14.0933 16.9709 14.94 16.2509 15.66C15.5309 16.38 14.6842 16.95 13.7109 17.37C12.7376 17.79 11.6976 18 10.5909 18ZM10.5909 16.4C12.3776 16.4 13.8909 15.78 15.1309 14.54C16.3709 13.3 16.9909 11.7867 16.9909 10C16.9909 8.21333 16.3709 6.7 15.1309 5.46C13.8909 4.22 12.3776 3.6 10.5909 3.6C8.80424 3.6 7.29091 4.22 6.05091 5.46C4.81091 6.7 4.19091 8.21333 4.19091 10C4.19091 11.7867 4.81091 13.3 6.05091 14.54C7.29091 15.78 8.80424 16.4 10.5909 16.4Z" fill="white"/>
</svg>
