<svg width="29" height="29" viewBox="0 0 29 29" fill="none" xmlns="http://www.w3.org/2000/svg">
<path d="M20.5417 12.1305C15.8787 12.1305 12.0833 15.9246 12.0833 20.5888C12.0833 25.2264 15.8787 29 20.5417 29C25.2046 29 29 25.2058 29 20.5417C29 15.9041 25.2046 12.1305 20.5417 12.1305ZM20.5417 26.5833C17.2103 26.5833 14.5 23.8936 14.5 20.5888C14.5 17.2574 17.2103 14.5471 20.5417 14.5471C23.873 14.5471 26.5833 17.2369 26.5833 20.5417C26.5833 23.873 23.873 26.5833 20.5417 26.5833ZM22.6043 20.8957C23.0768 21.3682 23.0768 22.1318 22.6043 22.6043C22.3687 22.8399 22.0593 22.9583 21.75 22.9583C21.4407 22.9583 21.1313 22.8399 20.8957 22.6043L19.6874 21.396C19.4602 21.1688 19.3333 20.8619 19.3333 20.5417V18.125C19.3333 17.458 19.8735 16.9167 20.5417 16.9167C21.2099 16.9167 21.75 17.458 21.75 18.125V20.0414L22.6043 20.8957ZM29 8.45833V10.875C29 11.542 28.4599 12.0833 27.7917 12.0833C27.1235 12.0833 26.5833 11.542 26.5833 10.875V8.45833C26.5833 6.45975 24.9569 4.83333 22.9583 4.83333H6.04167C4.04308 4.83333 2.41667 6.45975 2.41667 8.45833V9.66667H13.2917C13.9587 9.66667 14.5 10.208 14.5 10.875C14.5 11.542 13.9587 12.0833 13.2917 12.0833H2.41667V22.9583C2.41667 24.9569 4.04308 26.5833 6.04167 26.5833H10.875C11.542 26.5833 12.0833 27.1247 12.0833 27.7917C12.0833 28.4587 11.542 29 10.875 29H6.04167C2.71029 29 0 26.2897 0 22.9583V8.45833C0 5.12696 2.71029 2.41667 6.04167 2.41667H7.25V1.20833C7.25 0.541333 7.79133 0 8.45833 0C9.12533 0 9.66667 0.541333 9.66667 1.20833V2.41667H19.3333V1.20833C19.3333 0.541333 19.8735 0 20.5417 0C21.2099 0 21.75 0.541333 21.75 1.20833V2.41667H22.9583C26.2897 2.41667 29 5.12696 29 8.45833Z" fill="#F0AA03"/>
</svg>
