<svg width="53" height="32" viewBox="0 0 53 32" fill="none" xmlns="http://www.w3.org/2000/svg">
<path d="M9.41358 1.79083C10.1545 0.67248 11.4067 0 12.7482 0H49C51.2091 0 53 1.79086 53 4V28C53 30.2091 51.2091 32 49 32H12.7482C11.4067 32 10.1545 31.3275 9.41358 30.2092L1.46358 18.2092C0.576378 16.87 0.576377 15.13 1.46358 13.7908L9.41358 1.79083Z" fill="#D9D9D9"/>
<path d="M24.5535 10L26.9293 13.2012H27.0424L29.4465 10H33.8303L29.503 15.5L34 21H29.503L27.0424 17.7344H26.9293L24.4687 21H20L24.4404 15.5L20.1414 10H24.5535Z" fill="black"/>
</svg>
