<svg width="52" height="47" viewBox="0 0 52 47" fill="none" xmlns="http://www.w3.org/2000/svg">
<path d="M26.2857 14.069C26.2857 15.2649 25.3055 16.2335 24.0952 16.2335H19.7143V32.3511C19.7143 33.429 18.9684 34.429 17.8918 34.6022C16.5195 34.8218 15.3333 33.7818 15.3333 32.4669V25.9735H10.9524V32.4669C10.9524 33.7818 9.76624 34.8218 8.3939 34.6022C7.31729 34.429 6.57143 33.429 6.57143 32.3511V16.2335H2.19048C0.980238 16.2335 0 15.2649 0 14.069C0 12.8731 0.980238 11.9045 2.19048 11.9045H9.51324C7.74114 10.7411 6.57143 8.75308 6.57143 6.49338C6.57143 2.90687 9.51324 0 13.1429 0C16.7725 0 19.7143 2.90687 19.7143 6.49338C19.7143 8.75308 18.5446 10.7411 16.7725 11.9045H24.0952C25.3055 11.9045 26.2857 12.8731 26.2857 14.069ZM49.8095 24.273H42.4868C44.2589 23.1096 45.4286 21.1215 45.4286 18.8618C45.4286 15.2753 42.4868 12.3684 38.8571 12.3684C35.2275 12.3684 32.2857 15.2753 32.2857 18.8618C32.2857 21.1215 33.4554 23.1096 35.2275 24.273H27.9048C26.6945 24.273 25.7143 25.2416 25.7143 26.4374C25.7143 27.6333 26.6945 28.6019 27.9048 28.6019H32.2857L28.3856 40.1644C28.149 40.8646 28.6769 41.5886 29.4239 41.5886H32.2857V44.7195C32.2857 45.7974 33.0316 46.7974 34.1082 46.9706C35.4805 47.1903 36.6667 46.1502 36.6667 44.8353V41.5886H41.0476V44.8353C41.0476 46.1502 42.2338 47.1903 43.6061 46.9706C44.6827 46.7974 45.4286 45.7985 45.4286 44.7195V41.5886H48.2904C49.0385 41.5886 49.5664 40.8646 49.3298 40.1644L45.4286 28.6019H49.8095C51.0198 28.6019 52 27.6333 52 26.4374C52 25.2416 51.0198 24.273 49.8095 24.273Z" fill="#61A600"/>
</svg>
