<svg width="29" height="36" viewBox="0 0 29 36" fill="none" xmlns="http://www.w3.org/2000/svg">
<path d="M3.66145 13.5429L1.28271 13.5429C0.808301 13.5429 1.00374 14.5711 1.16745 14.6228L3.025 15.1282L3.66229 13.5421L3.66145 13.5429Z" fill="url(#paint0_linear_3789_34829)"/>
<path d="M24.4203 13.5429L26.799 13.5429C27.2734 13.5429 27.078 14.5711 26.9143 14.6228L25.0567 15.1282L24.4194 13.5421L24.4203 13.5429Z" fill="url(#paint1_linear_3789_34829)"/>
<path d="M21.2129 33.9628H24.274C24.3074 33.9628 24.3349 33.9461 24.3383 33.9244L24.5838 32.3934H21.1477V33.9202C21.1477 33.9436 21.1769 33.9628 21.2129 33.9628Z" fill="#191C20"/>
<path d="M3.72638 33.9628H6.7875C6.82341 33.9628 6.85265 33.9436 6.85265 33.9202L6.85265 32.3934H3.4165L3.66206 33.9244C3.6654 33.9461 3.6938 33.9628 3.72638 33.9628Z" fill="#191C20"/>
<path d="M21.6122 31.9436L24.1187 31.9436L24.1187 35.9176C24.1187 35.9627 24.0819 36.0003 24.036 36.0003H21.694C21.6489 36.0003 21.6113 35.9636 21.6113 35.9176L21.6113 31.9436H21.6122Z" fill="url(#paint2_linear_3789_34829)"/>
<path d="M3.92686 31.9436L6.43339 31.9436L6.43339 35.9176C6.43339 35.9627 6.39664 36.0003 6.3507 36.0003H4.00871C3.96361 36.0003 3.92603 35.9636 3.92603 35.9176L3.92603 31.9436H3.92686Z" fill="url(#paint3_linear_3789_34829)"/>
<path d="M25.9895 30.7053C25.9895 31.7986 25.1192 32.6931 24.0267 32.7224C21.2145 32.7959 16.1463 32.9212 14.0424 32.9212C11.9384 32.9212 6.87023 32.7967 4.05801 32.7224C2.96469 32.694 2.09521 31.7994 2.09521 30.7053L2.09521 19.0162C2.09521 16.4203 2.65649 5.64585 2.94047 2.75344C3.03402 1.80545 3.77069 1.04957 4.71617 0.935975C6.62133 0.706286 10.0399 0.378876 14.0424 0.378876C18.4992 0.378876 21.6438 0.678724 23.3853 0.905907C24.3232 1.02785 25.0499 1.78123 25.1426 2.72254C25.4257 5.60241 25.9912 16.4103 25.9912 19.0162L25.9912 30.7053H25.9895Z" fill="url(#paint4_linear_3789_34829)"/>
<path d="M23.9656 23.9649C23.923 24.2497 23.6992 24.4685 23.4135 24.5078C22.1598 24.6782 18.5633 25.105 13.9996 25.105C9.43592 25.105 5.81185 24.6807 4.58322 24.5094C4.29925 24.4694 4.07707 24.2505 4.03448 23.9674C3.80479 22.4339 3.09985 17.5729 3.09985 15.58C3.09985 13.7984 3.45149 4.96921 3.62939 3.01978C3.68702 2.38333 4.17897 1.87217 4.81291 1.79366C6.31048 1.6074 9.36409 1.32175 13.9996 1.32175C18.6352 1.32175 21.6345 1.61742 23.2114 1.80368C23.8537 1.87969 24.3532 2.39502 24.4074 3.03982C24.5737 4.9976 24.8994 13.8051 24.8994 15.5808C24.8994 17.5729 24.1953 22.4306 23.9656 23.9665V23.9649Z" fill="url(#paint5_linear_3789_34829)"/>
<path style="mix-blend-mode:hard-light" opacity="0.5" d="M23.6759 22.8043C23.6341 23.0666 23.417 23.2695 23.1405 23.3055C21.9227 23.4625 18.4306 22.9655 13.9997 22.9655C9.56882 22.9655 6.04915 23.465 4.85644 23.3071C4.58082 23.2704 4.36533 23.0683 4.32357 22.8068C4.10056 21.3919 3.4165 16.9076 3.4165 15.0684C3.4165 13.4247 3.75811 4.91283 3.93017 3.11458C3.98613 2.52741 4.46305 2.05634 5.07945 1.98367C6.53359 1.81162 9.49866 1.54768 13.9997 1.54768C18.5008 1.54768 21.4132 1.8208 22.9434 1.99203C23.5673 2.06219 24.0517 2.53743 24.1044 3.13212C24.2656 4.93789 24.5821 13.4297 24.5821 15.0684C24.5821 16.9059 23.8989 21.3878 23.675 22.8043H23.6759Z" fill="url(#paint6_linear_3789_34829)"/>
<path d="M24.5829 11.1983C24.5829 11.1983 19.3385 11.8573 14.1476 11.8573C8.95659 11.8573 3.4165 11.2167 3.4165 11.2167L3.56852 10.0123L24.4785 10.1083L24.5829 11.1983Z" fill="url(#paint7_linear_3789_34829)"/>
<path d="M24.515 10.6193C24.515 10.6193 19.3391 11.3977 14.1473 11.3977C8.9555 11.3977 3.55322 10.7713 3.55322 10.7713L3.59164 9.55354L24.419 9.55354L24.5142 10.6193H24.515Z" fill="url(#paint8_linear_3789_34829)"/>
<path d="M6.83633 29.3856L3.78523 29.3856C3.12373 29.3856 2.53155 28.9755 2.29602 28.3583C2.23421 28.1954 2.18994 27.5556 2.18994 27.5556C2.18994 27.4495 2.28182 27.3677 2.38706 27.381C3.13709 27.4754 5.80733 27.8488 6.56823 28.471C6.8046 28.6648 6.91652 29.0223 6.96329 29.2286C6.98166 29.3104 6.91986 29.3864 6.83633 29.3864V29.3856Z" fill="url(#paint9_linear_3789_34829)"/>
<path opacity="0.5" d="M3.78535 29.1338C3.23242 29.1338 2.72878 28.7856 2.53166 28.2677C2.50577 28.1992 2.47069 27.9077 2.44897 27.6405C4.01503 27.8426 5.86006 28.2151 6.40964 28.6644C6.51739 28.753 6.6126 28.9192 6.67859 29.133L3.78618 29.133L3.78535 29.1338Z" fill="url(#paint10_linear_3789_34829)"/>
<path style="mix-blend-mode:soft-light" d="M5.56176 29.1464C5.29198 29.1464 5.07983 28.9668 5.07983 28.7371C5.07983 28.5074 5.29115 28.3279 5.56176 28.3279C5.83238 28.3279 6.04369 28.5074 6.04369 28.7371C6.04369 28.9668 5.83238 29.1464 5.56176 29.1464Z" fill="url(#paint11_linear_3789_34829)"/>
<path style="mix-blend-mode:soft-light" d="M5.85843 28.7383C5.85843 28.862 5.72563 28.9614 5.56276 28.9614C5.39989 28.9614 5.26709 28.8611 5.26709 28.7383C5.26709 28.6156 5.39989 28.5153 5.56276 28.5153C5.72563 28.5153 5.85843 28.6156 5.85843 28.7383Z" fill="url(#paint12_linear_3789_34829)"/>
<path style="mix-blend-mode:soft-light" d="M4.0046 29.1471C3.53771 29.1471 3.17188 28.8698 3.17188 28.5157C3.17188 28.1615 3.53771 27.8842 4.0046 27.8842C4.4715 27.8842 4.83733 28.1615 4.83733 28.5157C4.83733 28.8698 4.4715 29.1471 4.0046 29.1471Z" fill="url(#paint13_linear_3789_34829)"/>
<path opacity="0.52" d="M4.60679 28.5164C4.60679 28.7378 4.33701 28.9165 4.00542 28.9165C3.67383 28.9165 3.40405 28.7369 3.40405 28.5164C3.40405 28.2959 3.67383 28.1164 4.00542 28.1164C4.33701 28.1164 4.60679 28.2959 4.60679 28.5164Z" fill="white"/>
<path style="mix-blend-mode:soft-light" d="M3.1714 28.0453C3.1714 28.2491 3.00101 28.4145 2.79053 28.4145C2.58006 28.4145 2.40967 28.2491 2.40967 28.0453C2.40967 27.8415 2.58006 27.6762 2.79053 27.6762C3.00101 27.6762 3.1714 27.8415 3.1714 28.0453Z" fill="url(#paint14_linear_3789_34829)"/>
<path opacity="0.52" d="M2.79131 28.6904C2.33945 28.0665 2.27012 27.5436 2.27514 27.4083C2.22586 27.4392 2.18994 27.491 2.18994 27.5553C2.18994 27.5553 2.23421 28.1951 2.29602 28.358C2.53155 28.9761 3.12373 29.3853 3.78523 29.3853L6.83633 29.3853C6.86891 29.3853 6.89564 29.372 6.91819 29.3528C6.90315 29.3528 4.8702 29.3812 3.59731 29.1932C3.19389 29.1331 2.92244 28.8708 2.79131 28.6904Z" fill="white"/>
<path style="mix-blend-mode:soft-light" d="M2.41797 27.3845C2.42549 27.5791 2.5491 27.9315 2.88987 28.223C3.35343 28.6198 6.78122 29.1543 6.80461 29.0992C6.82382 29.0532 6.7286 28.6974 6.49557 28.4193C5.66535 27.8346 3.18137 27.4805 2.4188 27.3836L2.41797 27.3845Z" fill="url(#paint15_linear_3789_34829)"/>
<g style="mix-blend-mode:soft-light" opacity="0.52">
<path d="M2.56763 27.4932C2.56763 27.5667 5.09337 28.0093 5.73315 28.244C6.37211 28.4787 6.56421 28.7661 6.62435 28.7385C6.68448 28.7109 6.34371 28.3159 5.79663 28.1162C5.24872 27.9166 2.56846 27.3896 2.56846 27.494L2.56763 27.4932Z" fill="white"/>
</g>
<g style="mix-blend-mode:soft-light">
<path d="M3.70972 27.9172C3.70972 27.9172 4.04297 27.8829 4.29688 27.9748C4.57836 28.0767 4.75877 28.2429 4.75877 28.2429C4.76879 28.2104 4.59256 28.0149 4.33614 27.9314C4.13318 27.8646 3.72057 27.8754 3.70972 27.9172Z" fill="white"/>
</g>
<path d="M21.2772 29.3856L24.3283 29.3856C24.9898 29.3856 25.582 28.9755 25.8175 28.3583C25.8793 28.1954 25.9236 27.5556 25.9236 27.5556C25.9236 27.4495 25.8317 27.3677 25.7265 27.381C24.9764 27.4754 22.3062 27.8488 21.5453 28.471C21.3089 28.6648 21.197 29.0223 21.1502 29.2286C21.1318 29.3104 21.1937 29.3864 21.2772 29.3864V29.3856Z" fill="url(#paint16_linear_3789_34829)"/>
<path opacity="0.5" d="M24.3273 29.1338C24.8802 29.1338 25.3839 28.7856 25.581 28.2677C25.6069 28.1992 25.642 27.9077 25.6637 27.6405C24.0976 27.8426 22.2526 28.2151 21.703 28.6644C21.5953 28.753 21.5001 28.9192 21.4341 29.133L24.3265 29.133L24.3273 29.1338Z" fill="url(#paint17_linear_3789_34829)"/>
<path style="mix-blend-mode:soft-light" d="M22.5513 29.1464C22.821 29.1464 23.0332 28.9668 23.0332 28.7371C23.0332 28.5074 22.8219 28.3279 22.5513 28.3279C22.2807 28.3279 22.0693 28.5074 22.0693 28.7371C22.0693 28.9668 22.2807 29.1464 22.5513 29.1464Z" fill="url(#paint18_linear_3789_34829)"/>
<path style="mix-blend-mode:soft-light" d="M22.2554 28.7377C22.2554 28.8613 22.3882 28.9607 22.551 28.9607C22.7139 28.9607 22.8467 28.8604 22.8467 28.7377C22.8467 28.6149 22.7139 28.5147 22.551 28.5147C22.3882 28.5147 22.2554 28.6149 22.2554 28.7377Z" fill="url(#paint19_linear_3789_34829)"/>
<path style="mix-blend-mode:soft-light" d="M24.1079 29.1471C24.5748 29.1471 24.9406 28.8698 24.9406 28.5157C24.9406 28.1615 24.5748 27.8842 24.1079 27.8842C23.641 27.8842 23.2751 28.1615 23.2751 28.5157C23.2751 28.8698 23.641 29.1471 24.1079 29.1471Z" fill="url(#paint20_linear_3789_34829)"/>
<path opacity="0.52" d="M23.5059 28.5157C23.5059 28.7371 23.7756 28.9158 24.1072 28.9158C24.4388 28.9158 24.7086 28.7362 24.7086 28.5157C24.7086 28.2952 24.4388 28.1157 24.1072 28.1157C23.7756 28.1157 23.5059 28.2952 23.5059 28.5157Z" fill="white"/>
<path style="mix-blend-mode:soft-light" d="M25.322 28.4145C25.5324 28.4145 25.7029 28.2492 25.7029 28.0453C25.7029 27.8414 25.5324 27.6762 25.322 27.6762C25.1117 27.6762 24.9412 27.8414 24.9412 28.0453C24.9412 28.2492 25.1117 28.4145 25.322 28.4145Z" fill="url(#paint21_linear_3789_34829)"/>
<path opacity="0.52" d="M25.3219 28.6904C25.7738 28.0665 25.8431 27.5436 25.8381 27.4083C25.8874 27.4392 25.9233 27.491 25.9233 27.5553C25.9233 27.5553 25.879 28.1951 25.8172 28.358C25.5817 28.9761 24.9895 29.3853 24.328 29.3853L21.2769 29.3853C21.2443 29.3853 21.2176 29.372 21.1951 29.3528C21.2101 29.3528 23.2431 29.3812 24.5159 29.1932C24.9194 29.1331 25.1908 28.8708 25.3219 28.6904Z" fill="white"/>
<path style="mix-blend-mode:soft-light" d="M25.6954 27.3845C25.6879 27.5791 25.5643 27.9315 25.2235 28.223C24.76 28.6198 21.3322 29.1543 21.3088 29.0992C21.2896 29.0532 21.3848 28.6974 21.6178 28.4193C22.4481 27.8346 24.932 27.4805 25.6946 27.3836L25.6954 27.3845Z" fill="url(#paint22_linear_3789_34829)"/>
<g style="mix-blend-mode:soft-light" opacity="0.52">
<path d="M25.5457 27.4932C25.5457 27.5667 23.02 28.0093 22.3802 28.244C21.7413 28.4787 21.5492 28.7661 21.489 28.7385C21.4289 28.7109 21.7697 28.3159 22.3167 28.1162C22.8647 27.9166 25.5449 27.3896 25.5449 27.494L25.5457 27.4932Z" fill="white"/>
</g>
<g style="mix-blend-mode:soft-light">
<path d="M24.403 27.9172C24.403 27.9172 24.0697 27.8829 23.8158 27.9748C23.5343 28.0767 23.3539 28.2429 23.3539 28.2429C23.3439 28.2104 23.5201 28.0149 23.7765 27.9314C23.9795 27.8646 24.3921 27.8754 24.403 27.9172Z" fill="white"/>
</g>
<path style="mix-blend-mode:multiply" d="M23.4998 0.926197L23.4998 32.736C23.6827 32.731 23.8589 32.7268 24.0268 32.7226C25.1201 32.6942 25.9896 31.7997 25.9896 30.7055L25.9896 19.0165C25.9896 16.4114 25.4241 5.60266 25.141 2.72278C25.0525 1.82073 24.3809 1.09324 23.4998 0.926197Z" fill="url(#paint23_linear_3789_34829)"/>
<path d="M16.5073 30.949L11.4324 30.949C11.4223 30.949 11.4141 30.9573 11.4141 30.9674L11.4141 32.1184C11.4141 32.1285 11.4223 32.1367 11.4324 32.1367L16.5073 32.1367C16.5175 32.1367 16.5257 32.1285 16.5257 32.1184V30.9674C16.5257 30.9573 16.5175 30.949 16.5073 30.949Z" fill="#E4E4E4"/>
<path d="M16.4406 32.168L11.5002 32.168C11.4359 32.168 11.3833 32.1153 11.3833 32.051L11.3833 31.0345C11.3833 30.9702 11.4359 30.9176 11.5002 30.9176L16.4406 30.9176C16.5049 30.9176 16.5576 30.9702 16.5576 31.0345V32.051C16.5576 32.1153 16.5049 32.168 16.4406 32.168ZM11.5002 30.9803C11.4702 30.9803 11.4459 31.0045 11.4459 31.0345L11.4459 32.051C11.4459 32.0811 11.4702 32.1053 11.5002 32.1053L16.4406 32.1053C16.4707 32.1053 16.4949 32.0811 16.4949 32.051V31.0345C16.4949 31.0045 16.4707 30.9803 16.4406 30.9803L11.5002 30.9803Z" fill="#727476"/>
<path d="M6.4604 31.4745H5.29693C5.28355 31.4745 5.27271 31.4854 5.27271 31.4988L5.27271 32.1185C5.27271 32.1319 5.28355 32.1427 5.29693 32.1427H6.4604C6.47378 32.1427 6.48463 32.1319 6.48463 32.1185L6.48463 31.4988C6.48463 31.4854 6.47378 31.4745 6.4604 31.4745Z" fill="#5B5D60"/>
<g style="mix-blend-mode:multiply">
<path d="M5.36246 31.544H6.43907C6.45327 31.544 6.46413 31.5557 6.46413 31.5691L6.46413 32.1103C6.46413 32.1245 6.45244 32.1354 6.43907 32.1354H5.36246C5.34826 32.1354 5.3374 32.1237 5.3374 32.1103L5.3374 31.5691C5.3374 31.5549 5.3491 31.544 5.36246 31.544Z" fill="white"/>
</g>
<g style="mix-blend-mode:multiply">
<path d="M6.43209 31.5476H5.37052C5.35668 31.5476 5.34546 31.5588 5.34546 31.5727L5.34546 32.1039C5.34546 32.1177 5.35668 32.1289 5.37052 32.1289H6.43209C6.44593 32.1289 6.45715 32.1177 6.45715 32.1039L6.45715 31.5727C6.45715 31.5588 6.44593 31.5476 6.43209 31.5476Z" fill="#F8F8F8"/>
</g>
<g style="mix-blend-mode:multiply">
<path d="M6.42609 31.551H5.37871C5.36534 31.551 5.35449 31.5619 5.35449 31.5753L5.35449 32.0973C5.35449 32.1107 5.36534 32.1215 5.37871 32.1215H6.42609C6.43947 32.1215 6.45032 32.1107 6.45032 32.0973L6.45032 31.5753C6.45032 31.5619 6.43947 31.551 6.42609 31.551Z" fill="#F1F1F1"/>
</g>
<g style="mix-blend-mode:multiply">
<path d="M6.41828 31.5545H5.38677C5.37339 31.5545 5.36255 31.5653 5.36255 31.5787L5.36255 32.0899C5.36255 32.1032 5.37339 32.1141 5.38677 32.1141H6.41828C6.43166 32.1141 6.4425 32.1032 6.4425 32.0899V31.5787C6.4425 31.5653 6.43166 31.5545 6.41828 31.5545Z" fill="#EAEAEA"/>
</g>
<g style="mix-blend-mode:multiply">
<path d="M6.41301 31.5572H5.3957C5.38278 31.5572 5.37231 31.5677 5.37231 31.5806L5.37231 32.0834C5.37231 32.0963 5.38278 32.1068 5.3957 32.1068H6.41301C6.42593 32.1068 6.4364 32.0963 6.4364 32.0834V31.5806C6.4364 31.5677 6.42593 31.5572 6.41301 31.5572Z" fill="#E2E2E2"/>
</g>
<g style="mix-blend-mode:multiply">
<path d="M5.404 31.5607H6.40628C6.41881 31.5607 6.42967 31.5707 6.42967 31.584V32.0768C6.42967 32.0894 6.41964 32.1002 6.40628 32.1002H5.404C5.39147 32.1002 5.38062 32.0902 5.38062 32.0768L5.38062 31.584C5.38062 31.5715 5.39064 31.5607 5.404 31.5607Z" fill="#DBDBDB"/>
</g>
<g style="mix-blend-mode:multiply">
<path d="M6.40003 31.5641H5.41196C5.3995 31.5641 5.3894 31.5742 5.3894 31.5866L5.3894 32.0702C5.3894 32.0827 5.3995 32.0928 5.41196 32.0928H6.40003C6.41249 32.0928 6.42259 32.0827 6.42259 32.0702V31.5866C6.42259 31.5742 6.41249 31.5641 6.40003 31.5641Z" fill="#D4D4D4"/>
</g>
<g style="mix-blend-mode:multiply">
<path d="M6.3932 31.5675H5.42099C5.40853 31.5675 5.39844 31.5776 5.39844 31.5901L5.39844 32.0628C5.39844 32.0753 5.40853 32.0854 5.42099 32.0854H6.3932C6.40565 32.0854 6.41575 32.0753 6.41575 32.0628V31.5901C6.41575 31.5776 6.40565 31.5675 6.3932 31.5675Z" fill="#CDCDCD"/>
</g>
<g style="mix-blend-mode:multiply">
<path d="M6.38769 31.571H5.42967C5.41768 31.571 5.40796 31.5807 5.40796 31.5927L5.40796 32.0562C5.40796 32.0682 5.41768 32.0779 5.42967 32.0779H6.38769C6.39968 32.0779 6.4094 32.0682 6.4094 32.0562V31.5927C6.4094 31.5807 6.39968 31.571 6.38769 31.571Z" fill="#C6C6C6"/>
</g>
<g style="mix-blend-mode:multiply">
<path d="M6.38085 31.5744H5.43871C5.42671 31.5744 5.41699 31.5841 5.41699 31.5961L5.41699 32.0496C5.41699 32.0616 5.42671 32.0714 5.43871 32.0714H6.38085C6.39284 32.0714 6.40256 32.0616 6.40256 32.0496V31.5961C6.40256 31.5841 6.39284 31.5744 6.38085 31.5744Z" fill="#BFBFBF"/>
</g>
<g style="mix-blend-mode:multiply">
<path d="M6.37387 31.5771H5.44593C5.4344 31.5771 5.42505 31.5865 5.42505 31.598L5.42505 32.0424C5.42505 32.0539 5.4344 32.0632 5.44593 32.0632H6.37387C6.3854 32.0632 6.39475 32.0539 6.39475 32.0424V31.598C6.39475 31.5865 6.3854 31.5771 6.37387 31.5771Z" fill="#B8B8B8"/>
</g>
<g style="mix-blend-mode:multiply">
<path d="M6.36704 31.5806H5.45496C5.44343 31.5806 5.43408 31.5899 5.43408 31.6015L5.43408 32.0358C5.43408 32.0473 5.44343 32.0567 5.45496 32.0567H6.36704C6.37857 32.0567 6.38792 32.0473 6.38792 32.0358V31.6015C6.38792 31.5899 6.37857 31.5806 6.36704 31.5806Z" fill="#B0B0B0"/>
</g>
<g style="mix-blend-mode:multiply">
<path d="M6.3603 31.584H5.46243C5.45136 31.584 5.44238 31.593 5.44238 31.6041L5.44238 32.0292C5.44238 32.0403 5.45136 32.0492 5.46243 32.0492H6.3603C6.37137 32.0492 6.38035 32.0403 6.38035 32.0292V31.6041C6.38035 31.593 6.37137 31.584 6.3603 31.584Z" fill="#A9A9A9"/>
</g>
<g style="mix-blend-mode:multiply">
<path d="M6.35479 31.5874H5.47195C5.46088 31.5874 5.4519 31.5964 5.4519 31.6075L5.4519 32.0226C5.4519 32.0337 5.46088 32.0426 5.47195 32.0426H6.35479C6.36586 32.0426 6.37484 32.0337 6.37484 32.0226V31.6075C6.37484 31.5964 6.36586 31.5874 6.35479 31.5874Z" fill="#A2A2A2"/>
</g>
<g style="mix-blend-mode:multiply">
<path d="M6.34722 31.5909H5.48025C5.46918 31.5909 5.46021 31.5998 5.46021 31.6109V32.0152C5.46021 32.0262 5.46918 32.0352 5.48025 32.0352H6.34722C6.35829 32.0352 6.36727 32.0262 6.36727 32.0152V31.6109C6.36727 31.5998 6.35829 31.5909 6.34722 31.5909Z" fill="#9B9B9B"/>
</g>
<g style="mix-blend-mode:multiply">
<path d="M6.34098 31.5943H5.48821C5.4776 31.5943 5.46899 31.6029 5.46899 31.6135V32.0086C5.46899 32.0192 5.4776 32.0278 5.48821 32.0278H6.34098C6.35159 32.0278 6.36019 32.0192 6.36019 32.0086V31.6135C6.36019 31.6029 6.35159 31.5943 6.34098 31.5943Z" fill="#949494"/>
</g>
<g style="mix-blend-mode:multiply">
<path d="M5.4965 31.5971H6.33424C6.34426 31.5971 6.35345 31.6054 6.35345 31.6163V32.0021C6.35345 32.0122 6.3451 32.0214 6.33424 32.0214H5.4965C5.48648 32.0214 5.47729 32.013 5.47729 32.0021V31.6163C5.47729 31.6062 5.48565 31.5971 5.4965 31.5971Z" fill="#8D8D8D"/>
</g>
<g style="mix-blend-mode:multiply">
<path d="M6.32741 31.6005H5.5047C5.49456 31.6005 5.48633 31.6087 5.48633 31.6189V31.9947C5.48633 32.0049 5.49456 32.0131 5.5047 32.0131H6.32741C6.33755 32.0131 6.34578 32.0049 6.34578 31.9947V31.6189C6.34578 31.6087 6.33755 31.6005 6.32741 31.6005Z" fill="#868686"/>
</g>
<g style="mix-blend-mode:multiply">
<path d="M6.32033 31.6039H5.51349C5.50334 31.6039 5.49512 31.6121 5.49512 31.6223V31.9881C5.49512 31.9983 5.50334 32.0065 5.51349 32.0065H6.32033C6.33047 32.0065 6.3387 31.9983 6.3387 31.9881V31.6223C6.3387 31.6121 6.33047 31.6039 6.32033 31.6039Z" fill="#7E7E7E"/>
</g>
<g style="mix-blend-mode:multiply">
<path d="M6.31433 31.6074H5.52169C5.512 31.6074 5.50415 31.6152 5.50415 31.6249V31.9815C5.50415 31.9912 5.512 31.9991 5.52169 31.9991H6.31433C6.32401 31.9991 6.33187 31.9912 6.33187 31.9815V31.6249C6.33187 31.6152 6.32401 31.6074 6.31433 31.6074Z" fill="#777777"/>
</g>
<g style="mix-blend-mode:multiply">
<path d="M6.30808 31.6108H5.53048C5.52079 31.6108 5.51294 31.6186 5.51294 31.6283V31.9741C5.51294 31.9838 5.52079 31.9917 5.53048 31.9917H6.30808C6.31777 31.9917 6.32562 31.9838 6.32562 31.9741V31.6283C6.32562 31.6186 6.31777 31.6108 6.30808 31.6108Z" fill="#707070"/>
</g>
<g style="mix-blend-mode:multiply">
<path d="M5.53794 31.6142H6.30051C6.3097 31.6142 6.31722 31.6217 6.31722 31.6309V31.9684C6.31722 31.9775 6.3097 31.9851 6.30051 31.9851H5.53794C5.52876 31.9851 5.52124 31.9775 5.52124 31.9684V31.6309C5.52124 31.6217 5.52876 31.6142 5.53794 31.6142Z" fill="#696969"/>
</g>
<path d="M6.38239 31.5607H5.39598C5.38399 31.5607 5.37427 31.5704 5.37427 31.5824L5.37427 32.0334C5.37427 32.0454 5.38399 32.0551 5.39598 32.0551H6.38239C6.39439 32.0551 6.40411 32.0454 6.40411 32.0334V31.5824C6.40411 31.5704 6.39439 31.5607 6.38239 31.5607Z" fill="url(#paint24_linear_3789_34829)"/>
<path d="M6.37888 31.5614H5.39916C5.38716 31.5614 5.37744 31.5711 5.37744 31.5831L5.37744 32.0191C5.37744 32.0311 5.38716 32.0408 5.39916 32.0408H6.37888C6.39088 32.0408 6.4006 32.0311 6.4006 32.0191V31.5831C6.4006 31.5711 6.39088 31.5614 6.37888 31.5614Z" fill="url(#paint25_linear_3789_34829)"/>
<path d="M6.3768 31.5634H5.40125C5.38972 31.5634 5.38037 31.5728 5.38037 31.5843L5.38037 32.0069C5.38037 32.0185 5.38972 32.0278 5.40125 32.0278H6.3768C6.38834 32.0278 6.39768 32.0185 6.39768 32.0069V31.5843C6.39768 31.5728 6.38834 31.5634 6.3768 31.5634Z" fill="url(#paint26_linear_3789_34829)"/>
<path d="M6.37281 31.5641H5.40394C5.39241 31.5641 5.38306 31.5735 5.38306 31.585V31.9934C5.38306 32.005 5.39241 32.0143 5.40394 32.0143H6.37281C6.38434 32.0143 6.39369 32.005 6.39369 31.9934V31.585C6.39369 31.5735 6.38434 31.5641 6.37281 31.5641Z" fill="url(#paint27_linear_3789_34829)"/>
<path d="M6.37121 31.5655H5.40652C5.39545 31.5655 5.38647 31.5745 5.38647 31.5855V31.9806C5.38647 31.9917 5.39545 32.0007 5.40652 32.0007H6.37121C6.38228 32.0007 6.39126 31.9917 6.39126 31.9806V31.5855C6.39126 31.5745 6.38228 31.5655 6.37121 31.5655Z" fill="url(#paint28_linear_3789_34829)"/>
<path d="M6.36795 31.5662H5.40994C5.39887 31.5662 5.38989 31.5752 5.38989 31.5862V31.9663C5.38989 31.9773 5.39887 31.9863 5.40994 31.9863H6.36795C6.37902 31.9863 6.38799 31.9773 6.38799 31.9663V31.5862C6.38799 31.5752 6.37902 31.5662 6.36795 31.5662Z" fill="url(#paint29_linear_3789_34829)"/>
<path d="M6.36635 31.5682H5.41252C5.40191 31.5682 5.39331 31.5768 5.39331 31.5875V31.9541C5.39331 31.9647 5.40191 31.9733 5.41252 31.9733H6.36635C6.37696 31.9733 6.38556 31.9647 6.38556 31.9541V31.5875C6.38556 31.5768 6.37696 31.5682 6.36635 31.5682Z" fill="url(#paint30_linear_3789_34829)"/>
<path d="M6.36163 31.5689H5.41447C5.40386 31.5689 5.39526 31.5775 5.39526 31.5881V31.9398C5.39526 31.9504 5.40386 31.959 5.41447 31.959H6.36163C6.37224 31.959 6.38084 31.9504 6.38084 31.9398V31.5881C6.38084 31.5775 6.37224 31.5689 6.36163 31.5689Z" fill="url(#paint31_linear_3789_34829)"/>
<path d="M6.36003 31.571H5.41706C5.40691 31.571 5.39868 31.5792 5.39868 31.5894V31.9276C5.39868 31.9378 5.40691 31.946 5.41706 31.946H6.36003C6.37018 31.946 6.37841 31.9378 6.37841 31.9276V31.5894C6.37841 31.5792 6.37018 31.571 6.36003 31.571Z" fill="url(#paint32_linear_3789_34829)"/>
<path d="M6.35701 31.5717H5.42072C5.41057 31.5717 5.40234 31.5799 5.40234 31.5901V31.9133C5.40234 31.9234 5.41057 31.9317 5.42072 31.9317H6.35701C6.36716 31.9317 6.37539 31.9234 6.37539 31.9133V31.5901C6.37539 31.5799 6.36716 31.5717 6.35701 31.5717Z" fill="url(#paint33_linear_3789_34829)"/>
<path d="M6.35542 31.5731H5.4233C5.41362 31.5731 5.40576 31.5809 5.40576 31.5906V31.9005C5.40576 31.9102 5.41362 31.918 5.4233 31.918H6.35542C6.36511 31.918 6.37296 31.9102 6.37296 31.9005V31.5906C6.37296 31.5809 6.36511 31.5731 6.35542 31.5731Z" fill="url(#paint34_linear_3789_34829)"/>
<path d="M6.35226 31.5737H5.42515C5.41593 31.5737 5.40845 31.5812 5.40845 31.5904V31.8869C5.40845 31.8962 5.41593 31.9037 5.42515 31.9037H6.35226C6.36148 31.9037 6.36896 31.8962 6.36896 31.8869V31.5904C6.36896 31.5812 6.36148 31.5737 6.35226 31.5737Z" fill="url(#paint35_linear_3789_34829)"/>
<path d="M6.3491 31.5758H5.42784C5.41861 31.5758 5.41113 31.5833 5.41113 31.5925V31.874C5.41113 31.8832 5.41861 31.8907 5.42784 31.8907H6.3491C6.35832 31.8907 6.3658 31.8832 6.3658 31.874V31.5925C6.3658 31.5833 6.35832 31.5758 6.3491 31.5758Z" fill="url(#paint36_linear_3789_34829)"/>
<path d="M6.34667 31.5765H5.43042C5.42166 31.5765 5.41455 31.5836 5.41455 31.5924V31.8605C5.41455 31.8692 5.42166 31.8763 5.43042 31.8763H6.34667C6.35543 31.8763 6.36254 31.8692 6.36254 31.8605V31.5924C6.36254 31.5836 6.35543 31.5765 6.34667 31.5765Z" fill="url(#paint37_linear_3789_34829)"/>
<path d="M6.34424 31.5779H5.43384C5.42507 31.5779 5.41797 31.585 5.41797 31.5937V31.8468C5.41797 31.8556 5.42507 31.8627 5.43384 31.8627H6.34424C6.35301 31.8627 6.36011 31.8556 6.36011 31.8468V31.5937C6.36011 31.585 6.35301 31.5779 6.34424 31.5779Z" fill="url(#paint38_linear_3789_34829)"/>
<path d="M6.34132 31.5792H5.43593C5.42763 31.5792 5.4209 31.586 5.4209 31.5943V31.8348C5.4209 31.8431 5.42763 31.8498 5.43593 31.8498H6.34132C6.34963 31.8498 6.35636 31.8431 6.35636 31.8348V31.5943C6.35636 31.586 6.34963 31.5792 6.34132 31.5792Z" fill="url(#paint39_linear_3789_34829)"/>
<path d="M6.33816 31.5806H5.43862C5.43031 31.5806 5.42358 31.5873 5.42358 31.5956V31.8212C5.42358 31.8295 5.43031 31.8362 5.43862 31.8362H6.33816C6.34647 31.8362 6.3532 31.8295 6.3532 31.8212V31.5956C6.3532 31.5873 6.34647 31.5806 6.33816 31.5806Z" fill="url(#paint40_linear_3789_34829)"/>
<path d="M6.33573 31.5813H5.4412C5.43336 31.5813 5.427 31.5876 5.427 31.5955V31.8076C5.427 31.8155 5.43336 31.8218 5.4412 31.8218H6.33573C6.34358 31.8218 6.34993 31.8155 6.34993 31.8076V31.5955C6.34993 31.5876 6.34358 31.5813 6.33573 31.5813Z" fill="url(#paint41_linear_3789_34829)"/>
<path d="M6.33331 31.5834H5.44462C5.43678 31.5834 5.43042 31.5897 5.43042 31.5976V31.7947C5.43042 31.8025 5.43678 31.8089 5.44462 31.8089H6.33331C6.34115 31.8089 6.3475 31.8025 6.3475 31.7947V31.5976C6.3475 31.5897 6.34115 31.5834 6.33331 31.5834Z" fill="url(#paint42_linear_3789_34829)"/>
<path d="M6.33014 31.584H5.44647C5.43909 31.584 5.43311 31.59 5.43311 31.5974V31.7812C5.43311 31.7885 5.43909 31.7945 5.44647 31.7945H6.33014C6.33752 31.7945 6.34351 31.7885 6.34351 31.7812V31.5974C6.34351 31.59 6.33752 31.584 6.33014 31.584Z" fill="url(#paint43_linear_3789_34829)"/>
<path d="M6.32855 31.5854H5.44905C5.44213 31.5854 5.43652 31.591 5.43652 31.5979V31.7683C5.43652 31.7752 5.44213 31.7809 5.44905 31.7809H6.32855C6.33547 31.7809 6.34108 31.7752 6.34108 31.7683V31.5979C6.34108 31.591 6.33547 31.5854 6.32855 31.5854Z" fill="url(#paint44_linear_3789_34829)"/>
<path d="M6.32455 31.5868H5.45174C5.44482 31.5868 5.43921 31.5924 5.43921 31.5993V31.7547C5.43921 31.7616 5.44482 31.7672 5.45174 31.7672H6.32455C6.33147 31.7672 6.33708 31.7616 6.33708 31.7547V31.5993C6.33708 31.5924 6.33147 31.5868 6.32455 31.5868Z" fill="#DBDBDB"/>
<path opacity="0.5" d="M5.45535 31.6456C5.45702 31.6706 6.28808 31.7174 6.32399 31.6765C6.35907 31.6355 6.34905 31.5929 6.24297 31.5863C6.1369 31.5796 5.45034 31.5846 5.45535 31.6456Z" fill="white"/>
<path d="M22.7028 31.4745H21.5394C21.526 31.4745 21.5151 31.4854 21.5151 31.4988V32.1185C21.5151 32.1319 21.526 32.1427 21.5394 32.1427H22.7028C22.7162 32.1427 22.7271 32.1319 22.7271 32.1185V31.4988C22.7271 31.4854 22.7162 31.4745 22.7028 31.4745Z" fill="#5B5D60"/>
<g style="mix-blend-mode:multiply">
<path d="M21.6046 31.5433H22.6813C22.6955 31.5433 22.7063 31.555 22.7063 31.5684V32.1096C22.7063 32.1238 22.6946 32.1347 22.6813 32.1347H21.6046C21.5904 32.1347 21.5796 32.123 21.5796 32.1096V31.5684C21.5796 31.5542 21.5913 31.5433 21.6046 31.5433Z" fill="white"/>
</g>
<g style="mix-blend-mode:multiply">
<path d="M22.6753 31.5467H21.6137C21.5998 31.5467 21.5886 31.5579 21.5886 31.5718V32.103C21.5886 32.1168 21.5998 32.128 21.6137 32.128H22.6753C22.6891 32.128 22.7003 32.1168 22.7003 32.103V31.5718C22.7003 31.5579 22.6891 31.5467 22.6753 31.5467Z" fill="#F8F8F8"/>
</g>
<g style="mix-blend-mode:multiply">
<path d="M22.6685 31.5502H21.6211C21.6078 31.5502 21.5969 31.561 21.5969 31.5744V32.0964C21.5969 32.1098 21.6078 32.1206 21.6211 32.1206H22.6685C22.6819 32.1206 22.6927 32.1098 22.6927 32.0964V31.5744C22.6927 31.561 22.6819 31.5502 22.6685 31.5502Z" fill="#F1F1F1"/>
</g>
<g style="mix-blend-mode:multiply">
<path d="M22.6622 31.5536H21.6307C21.6173 31.5536 21.6064 31.5644 21.6064 31.5778V32.089C21.6064 32.1023 21.6173 32.1132 21.6307 32.1132H22.6622C22.6756 32.1132 22.6864 32.1023 22.6864 32.089V31.5778C22.6864 31.5644 22.6756 31.5536 22.6622 31.5536Z" fill="#EAEAEA"/>
</g>
<g style="mix-blend-mode:multiply">
<path d="M22.6554 31.5563H21.6381C21.6252 31.5563 21.6147 31.5668 21.6147 31.5797V32.0825C21.6147 32.0955 21.6252 32.1059 21.6381 32.1059H22.6554C22.6684 32.1059 22.6788 32.0955 22.6788 32.0825V31.5797C22.6788 31.5668 22.6684 31.5563 22.6554 31.5563Z" fill="#E2E2E2"/>
</g>
<g style="mix-blend-mode:multiply">
<path d="M21.6469 31.5598H22.6492C22.6617 31.5598 22.6726 31.5698 22.6726 31.5832V32.0759C22.6726 32.0885 22.6626 32.0993 22.6492 32.0993H21.6469C21.6344 32.0993 21.6235 32.0893 21.6235 32.0759V31.5832C21.6235 31.5706 21.6336 31.5598 21.6469 31.5598Z" fill="#DBDBDB"/>
</g>
<g style="mix-blend-mode:multiply">
<path d="M22.6425 31.5632H21.6544C21.6419 31.5632 21.6318 31.5733 21.6318 31.5858V32.0694C21.6318 32.0818 21.6419 32.0919 21.6544 32.0919H22.6425C22.6549 32.0919 22.665 32.0818 22.665 32.0694V31.5858C22.665 31.5733 22.6549 31.5632 22.6425 31.5632Z" fill="#D4D4D4"/>
</g>
<g style="mix-blend-mode:multiply">
<path d="M22.6356 31.5666H21.6634C21.651 31.5666 21.6409 31.5767 21.6409 31.5892V32.0619C21.6409 32.0744 21.651 32.0845 21.6634 32.0845H22.6356C22.6481 32.0845 22.6582 32.0744 22.6582 32.0619V31.5892C22.6582 31.5767 22.6481 31.5666 22.6356 31.5666Z" fill="#CDCDCD"/>
</g>
<g style="mix-blend-mode:multiply">
<path d="M22.6301 31.5701H21.6721C21.6601 31.5701 21.6504 31.5798 21.6504 31.5918V32.0553C21.6504 32.0673 21.6601 32.0771 21.6721 32.0771H22.6301C22.6421 32.0771 22.6518 32.0673 22.6518 32.0553V31.5918C22.6518 31.5798 22.6421 31.5701 22.6301 31.5701Z" fill="#C6C6C6"/>
</g>
<g style="mix-blend-mode:multiply">
<path d="M22.6233 31.5735H21.6811C21.6691 31.5735 21.6594 31.5832 21.6594 31.5952V32.0488C21.6594 32.0607 21.6691 32.0705 21.6811 32.0705H22.6233C22.6353 32.0705 22.645 32.0607 22.645 32.0488V31.5952C22.645 31.5832 22.6353 31.5735 22.6233 31.5735Z" fill="#BFBFBF"/>
</g>
<g style="mix-blend-mode:multiply">
<path d="M22.6165 31.5763H21.6886C21.6771 31.5763 21.6677 31.5856 21.6677 31.5971V32.0415C21.6677 32.053 21.6771 32.0624 21.6886 32.0624H22.6165C22.6281 32.0624 22.6374 32.053 22.6374 32.0415V31.5971C22.6374 31.5856 22.6281 31.5763 22.6165 31.5763Z" fill="#B8B8B8"/>
</g>
<g style="mix-blend-mode:multiply">
<path d="M22.6095 31.5797H21.6974C21.6859 31.5797 21.6765 31.589 21.6765 31.6006V32.0349C21.6765 32.0464 21.6859 32.0558 21.6974 32.0558H22.6095C22.621 32.0558 22.6303 32.0464 22.6303 32.0349V31.6006C22.6303 31.589 22.621 31.5797 22.6095 31.5797Z" fill="#B0B0B0"/>
</g>
<g style="mix-blend-mode:multiply">
<path d="M22.6027 31.5831H21.7049C21.6938 31.5831 21.6848 31.5921 21.6848 31.6032V32.0283C21.6848 32.0394 21.6938 32.0483 21.7049 32.0483H22.6027C22.6138 32.0483 22.6228 32.0394 22.6228 32.0283V31.6032C22.6228 31.5921 22.6138 31.5831 22.6027 31.5831Z" fill="#A9A9A9"/>
</g>
<g style="mix-blend-mode:multiply">
<path d="M22.5972 31.5866H21.7144C21.7033 31.5866 21.6943 31.5955 21.6943 31.6066V32.0217C21.6943 32.0328 21.7033 32.0418 21.7144 32.0418H22.5972C22.6083 32.0418 22.6173 32.0328 22.6173 32.0217V31.6066C22.6173 31.5955 22.6083 31.5866 22.5972 31.5866Z" fill="#A2A2A2"/>
</g>
<g style="mix-blend-mode:multiply">
<path d="M22.5897 31.59H21.7227C21.7116 31.59 21.7026 31.599 21.7026 31.61V32.0143C21.7026 32.0254 21.7116 32.0343 21.7227 32.0343H22.5897C22.6007 32.0343 22.6097 32.0254 22.6097 32.0143V31.61C22.6097 31.599 22.6007 31.59 22.5897 31.59Z" fill="#9B9B9B"/>
</g>
<g style="mix-blend-mode:multiply">
<path d="M22.5837 31.5934H21.7309C21.7203 31.5934 21.7117 31.602 21.7117 31.6126V32.0077C21.7117 32.0183 21.7203 32.0269 21.7309 32.0269H22.5837C22.5943 32.0269 22.6029 32.0183 22.6029 32.0077V31.6126C22.6029 31.602 22.5943 31.5934 22.5837 31.5934Z" fill="#949494"/>
</g>
<g style="mix-blend-mode:multiply">
<path d="M21.7389 31.5962H22.5767C22.5867 31.5962 22.5959 31.6045 22.5959 31.6154V32.0013C22.5959 32.0113 22.5875 32.0205 22.5767 32.0205H21.7389C21.7289 32.0205 21.7197 32.0121 21.7197 32.0013V31.6154C21.7197 31.6054 21.7281 31.5962 21.7389 31.5962Z" fill="#8D8D8D"/>
</g>
<g style="mix-blend-mode:multiply">
<path d="M22.5706 31.5996H21.7479C21.7377 31.5996 21.7295 31.6078 21.7295 31.618V31.9938C21.7295 32.004 21.7377 32.0122 21.7479 32.0122H22.5706C22.5807 32.0122 22.5889 32.004 22.5889 31.9938V31.618C22.5889 31.6078 22.5807 31.5996 22.5706 31.5996Z" fill="#868686"/>
</g>
<g style="mix-blend-mode:multiply">
<path d="M22.5635 31.603H21.7567C21.7465 31.603 21.7383 31.6113 21.7383 31.6214V31.9872C21.7383 31.9974 21.7465 32.0056 21.7567 32.0056H22.5635C22.5736 32.0056 22.5819 31.9974 22.5819 31.9872V31.6214C22.5819 31.6113 22.5736 31.603 22.5635 31.603Z" fill="#7E7E7E"/>
</g>
<g style="mix-blend-mode:multiply">
<path d="M22.5568 31.6065H21.7641C21.7544 31.6065 21.7466 31.6143 21.7466 31.624V31.9807C21.7466 31.9903 21.7544 31.9982 21.7641 31.9982H22.5568C22.5664 31.9982 22.5743 31.9903 22.5743 31.9807V31.624C22.5743 31.6143 22.5664 31.6065 22.5568 31.6065Z" fill="#777777"/>
</g>
<g style="mix-blend-mode:multiply">
<path d="M22.5508 31.6099H21.7732C21.7635 31.6099 21.7556 31.6178 21.7556 31.6274V31.9732C21.7556 31.9829 21.7635 31.9908 21.7732 31.9908H22.5508C22.5604 31.9908 22.5683 31.9829 22.5683 31.9732V31.6274C22.5683 31.6178 22.5604 31.6099 22.5508 31.6099Z" fill="#707070"/>
</g>
<g style="mix-blend-mode:multiply">
<path d="M22.5438 31.614H21.7804C21.7712 31.614 21.7637 31.6215 21.7637 31.6307V31.9682C21.7637 31.9774 21.7712 31.9849 21.7804 31.9849H22.5438C22.553 31.9849 22.5605 31.9774 22.5605 31.9682V31.6307C22.5605 31.6215 22.553 31.614 22.5438 31.614Z" fill="#696969"/>
</g>
<path d="M21.6391 31.5598H22.6247C22.6372 31.5598 22.6464 31.5698 22.6464 31.5815V32.0317C22.6464 32.0442 22.6364 32.0534 22.6247 32.0534H21.6391C21.6266 32.0534 21.6174 32.0434 21.6174 32.0317V31.5815C21.6174 31.569 21.6275 31.5598 21.6391 31.5598Z" fill="url(#paint45_linear_3789_34829)"/>
<path d="M22.6213 31.5603H21.6416C21.6296 31.5603 21.6199 31.57 21.6199 31.582V32.018C21.6199 32.03 21.6296 32.0397 21.6416 32.0397H22.6213C22.6333 32.0397 22.643 32.03 22.643 32.018V31.582C22.643 31.57 22.6333 31.5603 22.6213 31.5603Z" fill="url(#paint46_linear_3789_34829)"/>
<path d="M21.6437 31.5624H22.6184C22.6301 31.5624 22.6393 31.5715 22.6393 31.5832V32.0059C22.6393 32.0176 22.6301 32.0267 22.6184 32.0267H21.6437C21.632 32.0267 21.6228 32.0176 21.6228 32.0059V31.5832C21.6228 31.5715 21.632 31.5624 21.6437 31.5624Z" fill="url(#paint47_linear_3789_34829)"/>
<path d="M22.6152 31.563H21.6464C21.6348 31.563 21.6255 31.5724 21.6255 31.5839V31.9923C21.6255 32.0039 21.6348 32.0132 21.6464 32.0132H22.6152C22.6268 32.0132 22.6361 32.0039 22.6361 31.9923V31.5839C22.6361 31.5724 22.6268 31.563 22.6152 31.563Z" fill="url(#paint48_linear_3789_34829)"/>
<path d="M21.649 31.5644H22.6128C22.6237 31.5644 22.6329 31.5736 22.6329 31.5845V31.9787C22.6329 31.9895 22.6237 31.9987 22.6128 31.9987H21.649C21.6381 31.9987 21.6289 31.9895 21.6289 31.9787V31.5845C21.6289 31.5736 21.6381 31.5644 21.649 31.5644Z" fill="url(#paint49_linear_3789_34829)"/>
<path d="M22.6104 31.5651H21.6524C21.6413 31.5651 21.6323 31.5741 21.6323 31.5851V31.9652C21.6323 31.9762 21.6413 31.9852 21.6524 31.9852H22.6104C22.6215 31.9852 22.6304 31.9762 22.6304 31.9652V31.5851C22.6304 31.5741 22.6215 31.5651 22.6104 31.5651Z" fill="url(#paint50_linear_3789_34829)"/>
<path d="M21.655 31.5673H22.6088C22.6196 31.5673 22.628 31.5757 22.628 31.5865V31.9524C22.628 31.9632 22.6196 31.9716 22.6088 31.9716H21.655C21.6441 31.9716 21.6357 31.9632 21.6357 31.9524V31.5857C21.6357 31.5748 21.6441 31.5665 21.655 31.5665V31.5673Z" fill="url(#paint51_linear_3789_34829)"/>
<path d="M22.6043 31.5678H21.6571C21.6465 31.5678 21.6379 31.5764 21.6379 31.5871V31.9387C21.6379 31.9493 21.6465 31.9579 21.6571 31.9579H22.6043C22.6149 31.9579 22.6235 31.9493 22.6235 31.9387V31.5871C22.6235 31.5764 22.6149 31.5678 22.6043 31.5678Z" fill="url(#paint52_linear_3789_34829)"/>
<path d="M22.6027 31.5699H21.6597C21.6496 31.5699 21.6414 31.5781 21.6414 31.5883V31.9266C21.6414 31.9367 21.6496 31.9449 21.6597 31.9449H22.6027C22.6129 31.9449 22.6211 31.9367 22.6211 31.9266V31.5883C22.6211 31.5781 22.6129 31.5699 22.6027 31.5699Z" fill="url(#paint53_linear_3789_34829)"/>
<path d="M22.5994 31.5706H21.6632C21.653 31.5706 21.6448 31.5788 21.6448 31.589V31.9122C21.6448 31.9224 21.653 31.9306 21.6632 31.9306H22.5994C22.6096 31.9306 22.6178 31.9224 22.6178 31.9122V31.589C22.6178 31.5788 22.6096 31.5706 22.5994 31.5706Z" fill="url(#paint54_linear_3789_34829)"/>
<path d="M22.5979 31.572H21.6657C21.656 31.572 21.6482 31.5798 21.6482 31.5895V31.8994C21.6482 31.9091 21.656 31.9169 21.6657 31.9169H22.5979C22.6075 31.9169 22.6154 31.9091 22.6154 31.8994V31.5895C22.6154 31.5798 22.6075 31.572 22.5979 31.572Z" fill="url(#paint55_linear_3789_34829)"/>
<path d="M22.594 31.5727H21.6668C21.6576 31.5727 21.6501 31.5801 21.6501 31.5894V31.8859C21.6501 31.8951 21.6576 31.9026 21.6668 31.9026H22.594C22.6032 31.9026 22.6107 31.8951 22.6107 31.8859V31.5894C22.6107 31.5801 22.6032 31.5727 22.594 31.5727Z" fill="url(#paint56_linear_3789_34829)"/>
<path d="M22.5915 31.5747H21.6703C21.661 31.5747 21.6536 31.5822 21.6536 31.5914V31.8729C21.6536 31.8821 21.661 31.8896 21.6703 31.8896H22.5915C22.6008 31.8896 22.6082 31.8821 22.6082 31.8729V31.5914C22.6082 31.5822 22.6008 31.5747 22.5915 31.5747Z" fill="url(#paint57_linear_3789_34829)"/>
<path d="M22.5891 31.5754H21.6729C21.6641 31.5754 21.657 31.5825 21.657 31.5913V31.8594C21.657 31.8681 21.6641 31.8752 21.6729 31.8752H22.5891C22.5979 31.8752 22.605 31.8681 22.605 31.8594V31.5913C22.605 31.5825 22.5979 31.5754 22.5891 31.5754Z" fill="url(#paint58_linear_3789_34829)"/>
<path d="M22.5867 31.5768H21.6763C21.6675 31.5768 21.6604 31.5839 21.6604 31.5926V31.8457C21.6604 31.8545 21.6675 31.8616 21.6763 31.8616H22.5867C22.5954 31.8616 22.6025 31.8545 22.6025 31.8457V31.5926C22.6025 31.5839 22.5954 31.5768 22.5867 31.5768Z" fill="url(#paint59_linear_3789_34829)"/>
<path d="M22.5842 31.5781H21.6789C21.6705 31.5781 21.6638 31.5849 21.6638 31.5932V31.8337C21.6638 31.842 21.6705 31.8488 21.6789 31.8488H22.5842C22.5925 31.8488 22.5993 31.842 22.5993 31.8337V31.5932C22.5993 31.5849 22.5925 31.5781 22.5842 31.5781Z" fill="url(#paint60_linear_3789_34829)"/>
<path d="M22.5806 31.5795H21.681C21.6727 31.5795 21.666 31.5863 21.666 31.5946V31.8201C21.666 31.8284 21.6727 31.8351 21.681 31.8351H22.5806C22.5889 31.8351 22.5956 31.8284 22.5956 31.8201V31.5946C22.5956 31.5863 22.5889 31.5795 22.5806 31.5795Z" fill="url(#paint61_linear_3789_34829)"/>
<path d="M22.5782 31.5802H21.6836C21.6758 31.5802 21.6694 31.5866 21.6694 31.5944V31.8066C21.6694 31.8144 21.6758 31.8208 21.6836 31.8208H22.5782C22.586 31.8208 22.5924 31.8144 22.5924 31.8066V31.5944C22.5924 31.5866 22.586 31.5802 22.5782 31.5802Z" fill="url(#paint62_linear_3789_34829)"/>
<path d="M22.5757 31.5823H21.6871C21.6792 31.5823 21.6729 31.5886 21.6729 31.5965V31.7936C21.6729 31.8014 21.6792 31.8078 21.6871 31.8078H22.5757C22.5836 31.8078 22.5899 31.8014 22.5899 31.7936V31.5965C22.5899 31.5886 22.5836 31.5823 22.5757 31.5823Z" fill="url(#paint63_linear_3789_34829)"/>
<path d="M22.5733 31.583H21.6896C21.6823 31.583 21.6763 31.5889 21.6763 31.5963V31.7801C21.6763 31.7875 21.6823 31.7934 21.6896 31.7934H22.5733C22.5807 31.7934 22.5867 31.7875 22.5867 31.7801V31.5963C22.5867 31.5889 22.5807 31.583 22.5733 31.583Z" fill="url(#paint64_linear_3789_34829)"/>
<path d="M22.571 31.5843H21.6915C21.6846 31.5843 21.679 31.5899 21.679 31.5969V31.7672C21.679 31.7742 21.6846 31.7798 21.6915 31.7798H22.571C22.5779 31.7798 22.5835 31.7742 22.5835 31.7672V31.5969C22.5835 31.5899 22.5779 31.5843 22.571 31.5843Z" fill="url(#paint65_linear_3789_34829)"/>
<path d="M22.5684 31.5857H21.6956C21.6887 31.5857 21.6831 31.5913 21.6831 31.5982V31.7536C21.6831 31.7605 21.6887 31.7661 21.6956 31.7661H22.5684C22.5754 31.7661 22.581 31.7605 22.581 31.7536V31.5982C22.581 31.5913 22.5754 31.5857 22.5684 31.5857Z" fill="#DBDBDB"/>
<path opacity="0.5" d="M21.697 31.6447C21.6987 31.6697 22.5298 31.7165 22.5657 31.6756C22.6008 31.6347 22.5907 31.5921 22.4847 31.5854C22.3786 31.5787 21.692 31.5837 21.697 31.6447Z" fill="white"/>
<path d="M27.6058 16.9935L26.8299 16.9935L26.6762 14.6323C26.6512 14.2464 26.3572 13.909 25.9237 13.7687L24.9014 13.5331L26.9452 13.5432C27.3102 13.5432 27.6058 13.7887 27.6058 14.0919L27.6058 16.9935Z" fill="url(#paint66_linear_3789_34829)"/>
<path d="M0.47583 16.9935H1.25176L1.40544 14.6323C1.4305 14.2464 1.7245 13.909 2.15799 13.7687L3.18031 13.5331L1.1365 13.5432C0.771502 13.5432 0.47583 13.7887 0.47583 14.0919L0.47583 16.9935Z" fill="url(#paint67_linear_3789_34829)"/>
<path d="M1.96217 16.2649C2.0791 16.361 1.77173 19.8464 1.63893 19.9174C1.50696 19.9884 0.633312 20.1295 0.424504 19.3812C0.215696 18.6336 0.109622 16.5915 0.21152 16.523C0.312583 16.4545 1.69656 16.0461 1.96217 16.2649Z" fill="#3D4042"/>
<path d="M1.82969 16.2758C1.9508 16.3694 1.63926 19.8573 1.50646 19.9283C1.37449 19.9993 0.500838 20.1405 0.29203 19.3921C0.0832217 18.6446 -0.114728 16.9933 0.0790453 16.5339C0.224376 16.189 1.50479 16.0244 1.82969 16.2758Z" fill="#212426"/>
<g style="mix-blend-mode:soft-light" opacity="0.12">
<path d="M1.34742 16.229C1.44598 16.3142 1.25388 19.8807 1.19458 19.9099C1.13527 19.9391 0.417811 19.9717 0.291691 19.3929C0.218191 19.0571 -0.10755 16.9941 0.0787066 16.5347C0.211508 16.2073 1.25722 16.1514 1.34742 16.2299V16.229Z" fill="#CCCAC7"/>
</g>
<g style="mix-blend-mode:soft-light" opacity="0.22">
<path d="M1.26795 16.2712C1.36484 16.3514 1.17023 19.7667 1.11427 19.8001C1.05831 19.8335 0.412674 19.8719 0.295741 19.3424C0.225582 19.0292 -0.0817832 16.9728 0.088604 16.5594C0.211383 16.262 1.17608 16.1952 1.26879 16.2721L1.26795 16.2712Z" fill="#CAC7C5"/>
</g>
<g style="mix-blend-mode:soft-light" opacity="0.32">
<path d="M1.18945 16.3138C1.28467 16.3889 1.08839 19.6538 1.03493 19.6898C0.978138 19.729 0.409345 19.7716 0.29993 19.2922C0.233947 19.0015 -0.0550436 16.9519 0.098639 16.5835C0.21056 16.3171 1.09424 16.2386 1.18945 16.3138Z" fill="#C8C5C4"/>
</g>
<g style="mix-blend-mode:soft-light" opacity="0.42">
<path d="M1.10971 16.3555C1.20325 16.4256 1.00447 19.5394 0.954355 19.5795C0.898394 19.6237 0.404772 19.6705 0.303709 19.2412C0.241067 18.9739 -0.0303829 16.9301 0.108265 16.6069C0.209329 16.3705 1.01199 16.2803 1.10971 16.3546V16.3555Z" fill="#C5C2C2"/>
</g>
<g style="mix-blend-mode:soft-light" opacity="0.51">
<path d="M1.0312 16.3982C1.12224 16.4642 0.922617 19.4268 0.875009 19.4702C0.819884 19.5203 0.400598 19.5713 0.308722 19.1921C0.249421 18.9473 -0.0036547 16.9102 0.119124 16.6329C0.210165 16.4275 0.930969 16.3256 1.03203 16.3991L1.0312 16.3982Z" fill="#C3C0C0"/>
</g>
<g style="mix-blend-mode:soft-light" opacity="0.61">
<path d="M0.952732 16.4405C1.0421 16.5015 0.840811 19.3137 0.795709 19.3597C0.742254 19.4148 0.397303 19.4699 0.312944 19.1408C0.256149 18.9187 0.022284 16.8882 0.129194 16.656C0.209376 16.4815 0.849163 16.3679 0.952732 16.4397V16.4405Z" fill="#C1BDBF"/>
</g>
<g style="mix-blend-mode:soft-light" opacity="0.71">
<path d="M0.873756 16.4837C0.960621 16.5405 0.757659 19.2015 0.715898 19.2508C0.664113 19.3118 0.392663 19.3711 0.317493 19.0921C0.264038 18.8933 0.0485483 16.8687 0.139589 16.6824C0.209748 16.538 0.766847 16.4143 0.873756 16.4837Z" fill="#BFBBBD"/>
</g>
<g style="mix-blend-mode:soft-light" opacity="0.81">
<path d="M0.795446 16.5259C0.879805 16.5777 0.676843 19.0884 0.636752 19.141C0.586638 19.2078 0.387853 19.2713 0.322705 19.0425C0.272591 18.8662 0.0763119 16.8492 0.150647 16.7072C0.210784 16.5936 0.686031 16.4583 0.796282 16.5259H0.795446Z" fill="#BCB8BB"/>
</g>
<g style="mix-blend-mode:soft-light" opacity="0.9">
<path d="M0.716898 16.568C0.798751 16.6156 0.594955 18.9751 0.557369 19.0311C0.508926 19.1038 0.382806 19.1714 0.326845 18.9918C0.279237 18.839 0.102168 16.8278 0.160634 16.7317C0.210748 16.649 0.603307 16.5029 0.716898 16.568Z" fill="#BAB6BA"/>
</g>
<g style="mix-blend-mode:soft-light">
<path d="M0.637022 16.6115C0.717204 16.655 0.511737 18.8633 0.476657 18.9218C0.429884 19.0003 0.376429 19.0721 0.330492 18.9427C0.284554 18.8132 0.129201 16.8087 0.170127 16.7569C0.211054 16.7051 0.520925 16.5472 0.637022 16.6115Z" fill="#B8B3B8"/>
</g>
<path d="M26.1649 16.2649C26.048 16.361 26.3554 19.8464 26.4882 19.9174C26.6201 19.9884 27.4938 20.1295 27.7026 19.3812C27.9114 18.6336 28.0175 16.5915 27.9156 16.523C27.8145 16.4545 26.4305 16.0461 26.1649 16.2649Z" fill="#3D4042"/>
<path d="M26.2989 16.2758C26.1778 16.3694 26.4893 19.8573 26.6221 19.9283C26.7541 19.9993 27.6278 20.1405 27.8366 19.3921C28.0454 18.6446 28.2433 16.9933 28.0495 16.5339C27.9042 16.189 26.6238 16.0244 26.2989 16.2758Z" fill="#212426"/>
<g style="mix-blend-mode:soft-light" opacity="0.12">
<path d="M26.7806 16.229C26.682 16.3142 26.8741 19.8807 26.9334 19.9099C26.9927 19.9391 27.7102 19.9717 27.8363 19.3929C27.9098 19.0571 28.2355 16.9941 28.0493 16.5347C27.9165 16.2073 26.8708 16.1514 26.7806 16.2299V16.229Z" fill="#CCCAC7"/>
</g>
<g style="mix-blend-mode:soft-light" opacity="0.22">
<path d="M26.8584 16.2712C26.7615 16.3514 26.9561 19.7667 27.0121 19.8001C27.068 19.8335 27.7137 19.8719 27.8306 19.3424C27.9008 19.0292 28.2081 16.9728 28.0378 16.5594C27.915 16.262 26.9503 16.1952 26.8576 16.2721L26.8584 16.2712Z" fill="#CAC7C5"/>
</g>
<g style="mix-blend-mode:soft-light" opacity="0.32">
<path d="M26.9378 16.3138C26.8426 16.3889 27.0389 19.6539 27.0923 19.6898C27.1491 19.729 27.7179 19.7716 27.8273 19.2922C27.8933 19.0015 28.1823 16.9519 28.0286 16.5835C27.9158 16.3171 27.033 16.2386 26.9378 16.3138Z" fill="#C8C5C4"/>
</g>
<g style="mix-blend-mode:soft-light" opacity="0.42">
<path d="M27.0171 16.3555C26.9236 16.4256 27.1224 19.5394 27.1725 19.5795C27.2284 19.6237 27.7221 19.6705 27.8231 19.2412C27.8858 18.9739 28.1572 16.9301 28.0186 16.6069C27.9175 16.3705 27.1148 16.2803 27.0171 16.3546V16.3555Z" fill="#C5C2C2"/>
</g>
<g style="mix-blend-mode:soft-light" opacity="0.51">
<path d="M27.0955 16.3982C27.0045 16.4642 27.2041 19.4268 27.2517 19.4702C27.3068 19.5203 27.7261 19.5713 27.818 19.1921C27.8773 18.9474 28.1304 16.9102 28.0076 16.6329C27.9165 16.4275 27.1957 16.3256 27.0947 16.3991L27.0955 16.3982Z" fill="#C3C0C0"/>
</g>
<g style="mix-blend-mode:soft-light" opacity="0.61">
<path d="M27.1745 16.4405C27.0851 16.5015 27.2864 19.3137 27.3315 19.3597C27.3849 19.4148 27.7299 19.4699 27.8143 19.1408C27.8711 18.9187 28.1049 16.8882 27.998 16.656C27.9178 16.4815 27.278 16.3679 27.1745 16.4397V16.4405Z" fill="#C1BDBF"/>
</g>
<g style="mix-blend-mode:soft-light" opacity="0.71">
<path d="M27.2528 16.4837C27.166 16.5405 27.3689 19.2015 27.4107 19.2508C27.4625 19.3118 27.7339 19.3711 27.8091 19.0921C27.8626 18.8933 28.078 16.8687 27.987 16.6825C27.9168 16.538 27.3598 16.4143 27.2528 16.4837Z" fill="#BFBBBD"/>
</g>
<g style="mix-blend-mode:soft-light" opacity="0.81">
<path d="M27.3321 16.5259C27.2477 16.5777 27.4507 19.0884 27.4908 19.141C27.5409 19.2079 27.7397 19.2713 27.8048 19.0425C27.8549 18.8662 28.0512 16.8492 27.9769 16.7072C27.9168 16.5936 27.4415 16.4583 27.3313 16.5259H27.3321Z" fill="#BCB8BB"/>
</g>
<g style="mix-blend-mode:soft-light" opacity="0.9">
<path d="M27.4113 16.568C27.3295 16.6156 27.5333 18.9751 27.5708 19.0311C27.6193 19.1038 27.7454 19.1714 27.8014 18.9919C27.849 18.839 28.026 16.8278 27.9676 16.7317C27.9175 16.649 27.5249 16.5029 27.4113 16.568Z" fill="#BAB6BA"/>
</g>
<g style="mix-blend-mode:soft-light">
<path d="M27.4896 16.6115C27.4094 16.655 27.6149 18.8633 27.65 18.9218C27.6967 19.0003 27.7502 19.0721 27.7961 18.9427C27.8421 18.8132 27.9974 16.8087 27.9565 16.7569C27.9156 16.7051 27.6057 16.5472 27.4896 16.6115Z" fill="#B8B3B8"/>
</g>
<mask id="mask0_3789_34829" style="mask-type:luminance" maskUnits="userSpaceOnUse" x="3" y="1" width="22" height="23">
<path d="M23.6759 22.8043C23.6341 23.0666 23.417 23.2695 23.1405 23.3055C21.9227 23.4625 18.4306 22.9655 13.9997 22.9655C9.56882 22.9655 6.04915 23.465 4.85644 23.3071C4.58082 23.2704 4.36533 23.0683 4.32357 22.8068C4.10056 21.3919 3.4165 16.9076 3.4165 15.0684C3.4165 13.4247 3.75811 4.91283 3.93017 3.11458C3.98613 2.52741 4.46305 2.05634 5.07945 1.98367C6.53359 1.81162 9.49866 1.54768 13.9997 1.54768C18.5008 1.54768 21.4132 1.8208 22.9434 1.99203C23.5673 2.06219 24.0517 2.53743 24.1044 3.13212C24.2656 4.93789 24.5821 13.4297 24.5821 15.0684C24.5821 16.9059 23.8989 21.3878 23.675 22.8043H23.6759Z" fill="white"/>
</mask>
<g mask="url(#mask0_3789_34829)">
<g style="mix-blend-mode:multiply">
<path d="M3.70947 -0.506973L3.81889 3.78445L6.96688 12.6947L6.96688 15.9646L12.2372 15.9646L12.8269 18.4803H15.0477L15.5088 15.9646L20.8752 15.9646L20.8752 12.7365L24.1484 3.62241L24.1484 -0.506973L3.70947 -0.506973ZM17.1016 15.1261L10.6035 15.1261L10.6035 13.5333L17.1016 13.5333V15.1261Z" fill="#CDCDCE"/>
<path d="M24.8331 24.5513L2.86816 24.5513L2.86816 15.9635L12.237 15.9635L12.8258 18.4792L15.0467 18.4792L15.5077 15.9635L24.8331 15.9635L24.8331 24.5513Z" fill="#B0B0B3"/>
<path d="M23.536 15.9635L19.9829 15.9635L20.4239 12.6284C20.4598 12.3595 20.6887 12.159 20.9593 12.159H22.5588C22.8302 12.159 23.0591 12.3595 23.0941 12.6284L23.5351 15.9635H23.536Z" fill="#B0B0B3"/>
<path d="M19.5316 15.9635L15.9785 15.9635L16.4195 12.6284C16.4554 12.3595 16.6843 12.159 16.9549 12.159H18.5544C18.8258 12.159 19.0547 12.3595 19.0898 12.6284L19.5308 15.9635H19.5316Z" fill="#B0B0B3"/>
<path d="M11.7765 15.9635L8.22339 15.9635L8.66439 12.6284C8.70031 12.3595 8.92916 12.159 9.19977 12.159H10.7992C11.0707 12.159 11.2995 12.3595 11.3346 12.6284L11.7756 15.9635H11.7765Z" fill="#B0B0B3"/>
<path d="M7.77207 15.9635L4.21899 15.9635L4.66 12.6284C4.69591 12.3595 4.92477 12.159 5.19622 12.159H6.79568C7.06713 12.159 7.29599 12.3595 7.3319 12.6284L7.7729 15.9635H7.77207Z" fill="#B0B0B3"/>
</g>
<g style="mix-blend-mode:multiply">
<path d="M20.6683 19.4097C20.6249 19.0873 20.3501 18.8468 20.0252 18.8468H19.5617V18.633C19.8415 18.5436 20.0469 18.2847 20.0469 17.9765C20.0469 17.5956 19.7354 17.2841 19.3545 17.2841H17.8294C17.4485 17.2841 17.137 17.5956 17.137 17.9765C17.137 18.2847 17.3424 18.5444 17.6223 18.633V18.8468H17.1587C16.8338 18.8468 16.559 19.0873 16.5156 19.4097L15.9785 23.4172L21.2054 23.4172L20.6683 19.4097ZM17.8904 18.668H19.2936V18.8468H17.8904V18.668Z" fill="#B0B0B3"/>
</g>
<g style="mix-blend-mode:multiply">
<path d="M18.5914 27.325C16.9668 27.325 15.6455 26.0037 15.6455 24.3791C15.6455 22.7546 16.9668 21.4333 18.5914 21.4333C20.2159 21.4333 21.5372 22.7546 21.5372 24.3791C21.5372 26.0037 20.2159 27.325 18.5914 27.325ZM18.5914 21.9369C17.2441 21.9369 16.1483 23.0327 16.1483 24.3791C16.1483 25.7255 17.2441 26.8222 18.5914 26.8222C19.9386 26.8222 21.0336 25.7264 21.0336 24.3791C21.0336 23.0319 19.9378 21.9369 18.5914 21.9369Z" fill="#B0B0B3"/>
</g>
<g style="mix-blend-mode:multiply">
<path d="M17.1006 1.97914L10.6025 1.97914L10.6025 0.386353L17.1006 0.386353V1.97914Z" fill="#CDCDCE"/>
<path d="M24.8328 10.4747L2.86792 10.4747L2.86792 7.89296L12.2367 7.89296L12.8255 8.64885L15.0464 8.64885L15.5075 7.89296L24.8328 7.89296L24.8328 10.4747Z" fill="#B0B0B3"/>
<path d="M23.5357 7.89847L19.9827 7.89847L20.4237 4.56339C20.4596 4.29445 20.6884 4.09399 20.959 4.09399L22.5585 4.09399C22.83 4.09399 23.0588 4.29445 23.0939 4.56339L23.5349 7.89847H23.5357Z" fill="#B0B0B3"/>
<path d="M19.5313 7.89847L15.9783 7.89847L16.4193 4.56339C16.4552 4.29445 16.684 4.09399 16.9547 4.09399L18.5541 4.09399C18.8256 4.09399 19.0544 4.29445 19.0895 4.56339L19.5305 7.89847H19.5313Z" fill="#B0B0B3"/>
<path d="M11.7762 7.89847L8.22314 7.89847L8.66415 4.56339C8.70006 4.29445 8.92891 4.09399 9.19953 4.09399L10.799 4.09399C11.0704 4.09399 11.2993 4.29445 11.3344 4.56339L11.7754 7.89847H11.7762Z" fill="#B0B0B3"/>
<path d="M7.77183 7.89847L4.21875 7.89847L4.65975 4.56339C4.69567 4.29445 4.92452 4.09399 5.19597 4.09399L6.79544 4.09399C7.06689 4.09399 7.29574 4.29445 7.33166 4.56339L7.77266 7.89847H7.77183Z" fill="#B0B0B3"/>
</g>
</g>
<mask id="mask1_3789_34829" style="mask-type:luminance" maskUnits="userSpaceOnUse" x="3" y="1" width="22" height="23">
<path d="M23.6759 22.9595C23.6341 23.2218 23.417 23.4247 23.1405 23.4607C21.9227 23.6177 18.4306 23.1207 13.9997 23.1207C9.56882 23.1207 6.04915 23.6202 4.85644 23.4623C4.58082 23.4256 4.36533 23.2235 4.32357 22.962C4.10056 21.5471 3.4165 17.0628 3.4165 15.2236C3.4165 13.5799 3.75811 5.06803 3.93017 3.26978C3.98613 2.68261 4.46305 2.21154 5.07945 2.13888C6.53359 1.96682 9.49866 1.70288 13.9997 1.70288C18.5008 1.70288 21.4132 1.97601 22.9434 2.14723C23.5673 2.21739 24.0517 2.69263 24.1044 3.28732C24.2656 5.09309 24.5821 13.5849 24.5821 15.2236C24.5821 17.0611 23.8989 21.543 23.675 22.9595H23.6759Z" fill="white"/>
</mask>
<g mask="url(#mask1_3789_34829)">
<path style="mix-blend-mode:hard-light" opacity="0.5" d="M13.7779 17.6109C18.5515 12.8373 18.5515 5.09775 13.7779 0.324136C9.00424 -4.44948 1.26468 -4.44948 -3.50894 0.324136C-8.28256 5.09775 -8.28256 12.8373 -3.50894 17.6109C1.26468 22.3846 9.00424 22.3846 13.7779 17.6109Z" fill="url(#paint68_radial_3789_34829)"/>
<path style="mix-blend-mode:soft-light" opacity="0.5" d="M23.6834 0.902615L18.6111 0.902615L18.6111 27.4772L23.6834 27.4772L23.6834 0.902615Z" fill="url(#paint69_linear_3789_34829)"/>
<path style="mix-blend-mode:soft-light" opacity="0.5" d="M10.9311 -0.674797L2.87866 -0.674797L2.87866 25.8998L10.9311 25.8998L10.9311 -0.674797Z" fill="url(#paint70_linear_3789_34829)"/>
<path style="mix-blend-mode:hard-light" opacity="0.5" d="M25.072 15.3243C25.072 20.2271 24.773 24.2011 24.4047 24.2011C24.0363 24.2011 23.7373 20.2271 23.7373 15.3243C23.7373 10.4215 24.0363 1.71501 24.4047 1.71501C24.773 1.71501 25.072 10.4223 25.072 15.3243Z" fill="url(#paint71_radial_3789_34829)"/>
<g style="mix-blend-mode:soft-light">
<path d="M4.85612 23.4612C4.85612 23.4612 3.00274 7.71624 6.96675 4.07964C10.9308 0.442209 23.79 3.05481 23.7365 1.9782C23.6831 0.902421 4.78345 -1.2199 3.17229 0.902422C1.56113 3.02474 2.0013 23.8312 4.85612 23.4612Z" fill="#9E9FA3"/>
</g>
<path style="mix-blend-mode:hard-light" opacity="0.5" d="M4.4077 13.8694C4.4077 16.9146 4.10869 19.3836 3.74035 19.3836C3.37201 19.3836 3.073 16.9146 3.073 13.8694C3.073 10.8241 3.37201 3.62274 3.74035 3.62274C4.10869 3.62274 4.4077 10.8241 4.4077 13.8694Z" fill="url(#paint72_radial_3789_34829)"/>
</g>
<path d="M13.8746 27.7653C13.4937 27.7653 13.1838 27.4554 13.1838 27.0746C13.1838 26.6937 13.4937 26.3838 13.8746 26.3838C14.2554 26.3838 14.5661 26.6937 14.5661 27.0746C14.5661 27.4554 14.2563 27.7653 13.8746 27.7653ZM13.8746 26.4239C13.5163 26.4239 13.2248 26.7154 13.2248 27.0746C13.2248 27.4337 13.5163 27.7252 13.8746 27.7252C14.2329 27.7252 14.5252 27.4337 14.5252 27.0746C14.5252 26.7154 14.2337 26.4239 13.8746 26.4239Z" fill="url(#paint73_linear_3789_34829)"/>
<path d="M17.0578 29.5159L10.8837 29.5159C10.4786 29.5159 10.1504 29.1877 10.1504 28.7826L17.7911 28.7826C17.7911 29.1877 17.4628 29.5159 17.0578 29.5159Z" fill="url(#paint74_linear_3789_34829)"/>
<path style="mix-blend-mode:multiply" d="M4.60696 0.953667C3.7141 1.10985 3.02837 1.84235 2.939 2.75359C2.65503 5.646 2.09375 16.4205 2.09375 19.0164L2.09375 30.7055C2.09375 31.7988 2.96406 32.6933 4.05654 32.7225C4.23194 32.7267 4.41569 32.7317 4.60696 32.7367L4.60696 0.953667Z" fill="url(#paint75_linear_3789_34829)"/>
<defs>
<linearGradient id="paint0_linear_3789_34829" x1="3.66145" y1="14.3355" x2="0.984534" y2="14.3355" gradientUnits="userSpaceOnUse">
<stop/>
<stop offset="1" stop-color="#272725"/>
</linearGradient>
<linearGradient id="paint1_linear_3789_34829" x1="24.4203" y1="-3.25613" x2="27.0972" y2="-3.25613" gradientUnits="userSpaceOnUse">
<stop/>
<stop offset="1" stop-color="#272725"/>
</linearGradient>
<linearGradient id="paint2_linear_3789_34829" x1="22.865" y1="29.098" x2="22.865" y2="35.9285" gradientUnits="userSpaceOnUse">
<stop/>
<stop offset="0.58" stop-color="#010101"/>
<stop offset="0.79" stop-color="#080808"/>
<stop offset="0.94" stop-color="#141414"/>
<stop offset="1" stop-color="#1C1C1C"/>
</linearGradient>
<linearGradient id="paint3_linear_3789_34829" x1="5.17971" y1="-3.25558" x2="5.17971" y2="-3.25558" gradientUnits="userSpaceOnUse">
<stop/>
<stop offset="0.58" stop-color="#010101"/>
<stop offset="0.79" stop-color="#080808"/>
<stop offset="0.94" stop-color="#141414"/>
<stop offset="1" stop-color="#1C1C1C"/>
</linearGradient>
<linearGradient id="paint4_linear_3789_34829" x1="14.0415" y1="32.8385" x2="14.0415" y2="0.420636" gradientUnits="userSpaceOnUse">
<stop stop-color="#4B8927"/>
<stop offset="0.56" stop-color="#D0FF7C"/>
<stop offset="1" stop-color="#728100"/>
</linearGradient>
<linearGradient id="paint5_linear_3789_34829" x1="13.9996" y1="25.0457" x2="13.9996" y2="1.35098" gradientUnits="userSpaceOnUse">
<stop/>
<stop offset="1" stop-color="#272725"/>
</linearGradient>
<linearGradient id="paint6_linear_3789_34829" x1="3.78902" y1="2.46811" x2="24.187" y2="22.7759" gradientUnits="userSpaceOnUse">
<stop stop-color="white"/>
<stop offset="0.15" stop-color="#F3F3F3"/>
<stop offset="0.42" stop-color="#D5D5D5"/>
<stop offset="0.77" stop-color="#A4A4A4"/>
<stop offset="1" stop-color="#808080"/>
</linearGradient>
<linearGradient id="paint7_linear_3789_34829" x1="13.9997" y1="0.603398" x2="13.9997" y2="32.9461" gradientUnits="userSpaceOnUse">
<stop/>
<stop offset="1" stop-color="#272725"/>
</linearGradient>
<linearGradient id="paint8_linear_3789_34829" x1="14.0337" y1="0.143823" x2="14.0337" y2="32.4865" gradientUnits="userSpaceOnUse">
<stop/>
<stop offset="1" stop-color="#272725"/>
</linearGradient>
<linearGradient id="paint9_linear_3789_34829" x1="2.18994" y1="28.3825" x2="6.96663" y2="28.3825" gradientUnits="userSpaceOnUse">
<stop stop-color="#959593"/>
<stop offset="0.46" stop-color="#C1C1C0"/>
<stop offset="0.73" stop-color="#D7D7D6"/>
<stop offset="0.84" stop-color="#D4D4D3"/>
<stop offset="0.9" stop-color="#CDCDCB"/>
<stop offset="0.94" stop-color="#C0C0BE"/>
<stop offset="0.98" stop-color="#ADADAB"/>
<stop offset="1" stop-color="#A2A2A0"/>
</linearGradient>
<linearGradient id="paint10_linear_3789_34829" x1="2.44897" y1="28.3872" x2="6.67859" y2="28.3872" gradientUnits="userSpaceOnUse">
<stop stop-color="#959593"/>
<stop offset="0.07" stop-color="#ABABA9"/>
<stop offset="0.17" stop-color="#C4C4C2"/>
<stop offset="0.27" stop-color="#D5D5D4"/>
<stop offset="0.37" stop-color="#E0E0DF"/>
<stop offset="0.49" stop-color="#E4E4E3"/>
<stop offset="0.69" stop-color="#E1E1E0"/>
<stop offset="0.79" stop-color="#DADAD8"/>
<stop offset="0.87" stop-color="#CCCCCB"/>
<stop offset="0.94" stop-color="#BABAB8"/>
<stop offset="1" stop-color="#A2A2A0"/>
</linearGradient>
<linearGradient id="paint11_linear_3789_34829" x1="5.08067" y1="28.738" x2="6.04369" y2="28.738" gradientUnits="userSpaceOnUse">
<stop stop-color="white"/>
<stop offset="1" stop-color="#1C1C1B"/>
</linearGradient>
<linearGradient id="paint12_linear_3789_34829" x1="5.26625" y1="-3.256" x2="5.85843" y2="-3.256" gradientUnits="userSpaceOnUse">
<stop stop-color="white"/>
<stop offset="1" stop-color="#1C1C1B"/>
</linearGradient>
<linearGradient id="paint13_linear_3789_34829" x1="3.17188" y1="28.5165" x2="4.83733" y2="28.5165" gradientUnits="userSpaceOnUse">
<stop stop-color="white"/>
<stop offset="1" stop-color="#1C1C1B"/>
</linearGradient>
<linearGradient id="paint14_linear_3789_34829" x1="2.40967" y1="28.0453" x2="3.1714" y2="28.0453" gradientUnits="userSpaceOnUse">
<stop stop-color="#C10000"/>
<stop offset="1" stop-color="#FDA101"/>
</linearGradient>
<linearGradient id="paint15_linear_3789_34829" x1="2.41797" y1="28.2439" x2="6.80628" y2="28.2439" gradientUnits="userSpaceOnUse">
<stop stop-color="white"/>
<stop offset="0.06" stop-color="#D9D9D9"/>
<stop offset="0.14" stop-color="#ADADAD"/>
<stop offset="0.23" stop-color="#868685"/>
<stop offset="0.32" stop-color="#656564"/>
<stop offset="0.41" stop-color="#4A4A49"/>
<stop offset="0.52" stop-color="#353534"/>
<stop offset="0.64" stop-color="#272726"/>
<stop offset="0.78" stop-color="#1E1E1D"/>
<stop offset="1" stop-color="#1C1C1B"/>
</linearGradient>
<linearGradient id="paint16_linear_3789_34829" x1="25.9227" y1="-3.25611" x2="21.146" y2="-3.25611" gradientUnits="userSpaceOnUse">
<stop stop-color="#959593"/>
<stop offset="0.46" stop-color="#C1C1C0"/>
<stop offset="0.73" stop-color="#D7D7D6"/>
<stop offset="0.84" stop-color="#D4D4D3"/>
<stop offset="0.9" stop-color="#CDCDCB"/>
<stop offset="0.94" stop-color="#C0C0BE"/>
<stop offset="0.98" stop-color="#ADADAB"/>
<stop offset="1" stop-color="#A2A2A0"/>
</linearGradient>
<linearGradient id="paint17_linear_3789_34829" x1="25.6645" y1="-3.25638" x2="21.4349" y2="-3.25638" gradientUnits="userSpaceOnUse">
<stop stop-color="#959593"/>
<stop offset="0.07" stop-color="#ABABA9"/>
<stop offset="0.17" stop-color="#C4C4C2"/>
<stop offset="0.27" stop-color="#D5D5D4"/>
<stop offset="0.37" stop-color="#E0E0DF"/>
<stop offset="0.49" stop-color="#E4E4E3"/>
<stop offset="0.69" stop-color="#E1E1E0"/>
<stop offset="0.79" stop-color="#DADAD8"/>
<stop offset="0.87" stop-color="#CCCCCB"/>
<stop offset="0.94" stop-color="#BABAB8"/>
<stop offset="1" stop-color="#A2A2A0"/>
</linearGradient>
<linearGradient id="paint18_linear_3789_34829" x1="23.0324" y1="-3.25647" x2="22.0693" y2="-3.25647" gradientUnits="userSpaceOnUse">
<stop stop-color="white"/>
<stop offset="1" stop-color="#1C1C1B"/>
</linearGradient>
<linearGradient id="paint19_linear_3789_34829" x1="22.8467" y1="-3.25669" x2="22.2554" y2="-3.25669" gradientUnits="userSpaceOnUse">
<stop stop-color="white"/>
<stop offset="1" stop-color="#1C1C1B"/>
</linearGradient>
<linearGradient id="paint20_linear_3789_34829" x1="24.9406" y1="28.5165" x2="23.2751" y2="28.5165" gradientUnits="userSpaceOnUse">
<stop stop-color="white"/>
<stop offset="1" stop-color="#1C1C1B"/>
</linearGradient>
<linearGradient id="paint21_linear_3789_34829" x1="25.7029" y1="-3.25663" x2="24.9403" y2="-3.25663" gradientUnits="userSpaceOnUse">
<stop stop-color="#C10000"/>
<stop offset="1" stop-color="#FDA101"/>
</linearGradient>
<linearGradient id="paint22_linear_3789_34829" x1="25.6954" y1="-3.25602" x2="21.3063" y2="-3.25602" gradientUnits="userSpaceOnUse">
<stop stop-color="white"/>
<stop offset="0.06" stop-color="#D9D9D9"/>
<stop offset="0.14" stop-color="#ADADAD"/>
<stop offset="0.23" stop-color="#868685"/>
<stop offset="0.32" stop-color="#656564"/>
<stop offset="0.41" stop-color="#4A4A49"/>
<stop offset="0.52" stop-color="#353534"/>
<stop offset="0.64" stop-color="#272726"/>
<stop offset="0.78" stop-color="#1E1E1D"/>
<stop offset="1" stop-color="#1C1C1B"/>
</linearGradient>
<linearGradient id="paint23_linear_3789_34829" x1="26.0029" y1="16.8307" x2="23.9767" y2="16.8307" gradientUnits="userSpaceOnUse">
<stop stop-color="#D2D5D5"/>
<stop offset="0.12" stop-color="#DCDEDE"/>
<stop offset="0.4" stop-color="#EFF0F0"/>
<stop offset="0.7" stop-color="#FBFBFB"/>
<stop offset="1" stop-color="white"/>
</linearGradient>
<linearGradient id="paint24_linear_3789_34829" x1="5.88961" y1="32.0476" x2="5.88961" y2="31.5381" gradientUnits="userSpaceOnUse">
<stop stop-color="#5A5A57"/>
<stop offset="0.25" stop-color="#8A8A87"/>
<stop offset="0.57" stop-color="#C1C1C0"/>
<stop offset="0.73" stop-color="#D7D7D6"/>
<stop offset="0.82" stop-color="#D4D4D3"/>
<stop offset="0.86" stop-color="#CDCDCB"/>
<stop offset="0.9" stop-color="#BFBFBE"/>
<stop offset="0.93" stop-color="#ADADAB"/>
<stop offset="0.96" stop-color="#959593"/>
<stop offset="0.98" stop-color="#777775"/>
<stop offset="1" stop-color="#5A5A57"/>
</linearGradient>
<linearGradient id="paint25_linear_3789_34829" x1="5.88944" y1="32.0341" x2="5.88944" y2="31.5405" gradientUnits="userSpaceOnUse">
<stop stop-color="#60605D"/>
<stop offset="0.23" stop-color="#8A8A87"/>
<stop offset="0.57" stop-color="#C1C1C0"/>
<stop offset="0.73" stop-color="#D7D7D6"/>
<stop offset="0.82" stop-color="#D4D4D3"/>
<stop offset="0.86" stop-color="#CDCDCB"/>
<stop offset="0.9" stop-color="#C0C0BE"/>
<stop offset="0.93" stop-color="#ADADAB"/>
<stop offset="0.96" stop-color="#959593"/>
<stop offset="0.98" stop-color="#777775"/>
<stop offset="1" stop-color="#60605D"/>
</linearGradient>
<linearGradient id="paint26_linear_3789_34829" x1="5.88903" y1="32.0211" x2="5.88903" y2="31.5426" gradientUnits="userSpaceOnUse">
<stop stop-color="#666664"/>
<stop offset="0.21" stop-color="#898987"/>
<stop offset="0.56" stop-color="#C1C1C0"/>
<stop offset="0.73" stop-color="#D7D7D6"/>
<stop offset="0.82" stop-color="#D4D4D3"/>
<stop offset="0.87" stop-color="#CDCDCB"/>
<stop offset="0.9" stop-color="#BFBFBE"/>
<stop offset="0.93" stop-color="#ADADAB"/>
<stop offset="0.96" stop-color="#949493"/>
<stop offset="0.99" stop-color="#777775"/>
<stop offset="1" stop-color="#666664"/>
</linearGradient>
<linearGradient id="paint27_linear_3789_34829" x1="5.88921" y1="32.0076" x2="5.88921" y2="31.5441" gradientUnits="userSpaceOnUse">
<stop stop-color="#6C6C6A"/>
<stop offset="0.18" stop-color="#8A8A88"/>
<stop offset="0.55" stop-color="#C2C2C1"/>
<stop offset="0.73" stop-color="#D8D8D7"/>
<stop offset="0.82" stop-color="#D5D5D4"/>
<stop offset="0.87" stop-color="#CECECC"/>
<stop offset="0.9" stop-color="#C0C0BF"/>
<stop offset="0.94" stop-color="#AEAEAC"/>
<stop offset="0.97" stop-color="#959594"/>
<stop offset="0.99" stop-color="#787876"/>
<stop offset="1" stop-color="#6C6C6A"/>
</linearGradient>
<linearGradient id="paint28_linear_3789_34829" x1="5.88928" y1="31.9931" x2="5.88928" y2="31.5463" gradientUnits="userSpaceOnUse">
<stop stop-color="#737370"/>
<stop offset="0.16" stop-color="#8B8B88"/>
<stop offset="0.54" stop-color="#C2C2C1"/>
<stop offset="0.73" stop-color="#D8D8D7"/>
<stop offset="0.82" stop-color="#D5D5D4"/>
<stop offset="0.87" stop-color="#CECECC"/>
<stop offset="0.91" stop-color="#C1C1BF"/>
<stop offset="0.94" stop-color="#AEAEAC"/>
<stop offset="0.97" stop-color="#969694"/>
<stop offset="1" stop-color="#737370"/>
</linearGradient>
<linearGradient id="paint29_linear_3789_34829" x1="5.88936" y1="31.9796" x2="5.88936" y2="31.5478" gradientUnits="userSpaceOnUse">
<stop stop-color="#797976"/>
<stop offset="0.13" stop-color="#8B8B88"/>
<stop offset="0.53" stop-color="#C2C2C1"/>
<stop offset="0.73" stop-color="#D8D8D7"/>
<stop offset="0.82" stop-color="#D5D5D4"/>
<stop offset="0.87" stop-color="#CECECC"/>
<stop offset="0.91" stop-color="#C1C1BF"/>
<stop offset="0.94" stop-color="#AEAEAC"/>
<stop offset="0.97" stop-color="#969694"/>
<stop offset="1" stop-color="#797976"/>
</linearGradient>
<linearGradient id="paint30_linear_3789_34829" x1="5.88944" y1="31.9667" x2="5.88944" y2="31.5499" gradientUnits="userSpaceOnUse">
<stop stop-color="#7F7F7D"/>
<stop offset="0.08" stop-color="#8A8A88"/>
<stop offset="0.52" stop-color="#C2C2C1"/>
<stop offset="0.73" stop-color="#D8D8D7"/>
<stop offset="0.82" stop-color="#D5D5D4"/>
<stop offset="0.88" stop-color="#CECECC"/>
<stop offset="0.91" stop-color="#C0C0BF"/>
<stop offset="0.95" stop-color="#AEAEAC"/>
<stop offset="0.98" stop-color="#969694"/>
<stop offset="1" stop-color="#7F7F7D"/>
</linearGradient>
<linearGradient id="paint31_linear_3789_34829" x1="5.88889" y1="31.9531" x2="5.88889" y2="31.5522" gradientUnits="userSpaceOnUse">
<stop stop-color="#858583"/>
<stop offset="0.05" stop-color="#8B8B89"/>
<stop offset="0.51" stop-color="#C2C2C2"/>
<stop offset="0.73" stop-color="#D8D8D8"/>
<stop offset="0.83" stop-color="#D5D5D5"/>
<stop offset="0.88" stop-color="#CECECD"/>
<stop offset="0.92" stop-color="#C1C1C0"/>
<stop offset="0.95" stop-color="#AEAEAD"/>
<stop offset="0.98" stop-color="#969695"/>
<stop offset="1" stop-color="#858583"/>
</linearGradient>
<linearGradient id="paint32_linear_3789_34829" x1="5.88896" y1="31.9402" x2="5.88896" y2="31.5543" gradientUnits="userSpaceOnUse">
<stop stop-color="#8B8B89"/>
<stop offset="0.49" stop-color="#C3C3C2"/>
<stop offset="0.73" stop-color="#D9D9D8"/>
<stop offset="0.83" stop-color="#D6D6D5"/>
<stop offset="0.88" stop-color="#CFCFCD"/>
<stop offset="0.92" stop-color="#C1C1C0"/>
<stop offset="0.96" stop-color="#AFAFAD"/>
<stop offset="0.99" stop-color="#979795"/>
<stop offset="1" stop-color="#8B8B89"/>
</linearGradient>
<linearGradient id="paint33_linear_3789_34829" x1="5.88928" y1="31.9267" x2="5.88928" y2="31.5558" gradientUnits="userSpaceOnUse">
<stop stop-color="#919190"/>
<stop offset="0.47" stop-color="#C3C3C2"/>
<stop offset="0.73" stop-color="#D9D9D8"/>
<stop offset="0.83" stop-color="#D6D6D5"/>
<stop offset="0.88" stop-color="#CECECD"/>
<stop offset="0.93" stop-color="#C1C1C0"/>
<stop offset="0.96" stop-color="#AEAEAD"/>
<stop offset="0.99" stop-color="#969695"/>
<stop offset="1" stop-color="#919190"/>
</linearGradient>
<linearGradient id="paint34_linear_3789_34829" x1="5.88936" y1="31.913" x2="5.88936" y2="31.5572" gradientUnits="userSpaceOnUse">
<stop stop-color="#979796"/>
<stop offset="0.45" stop-color="#C3C3C2"/>
<stop offset="0.73" stop-color="#D9D9D8"/>
<stop offset="0.83" stop-color="#D6D6D5"/>
<stop offset="0.89" stop-color="#CECECD"/>
<stop offset="0.93" stop-color="#C1C1C0"/>
<stop offset="0.97" stop-color="#AEAEAD"/>
<stop offset="1" stop-color="#979796"/>
</linearGradient>
<linearGradient id="paint35_linear_3789_34829" x1="5.88954" y1="31.8986" x2="5.88954" y2="31.5595" gradientUnits="userSpaceOnUse">
<stop stop-color="#9E9E9C"/>
<stop offset="0.43" stop-color="#C3C3C3"/>
<stop offset="0.73" stop-color="#D9D9D9"/>
<stop offset="0.84" stop-color="#D6D6D6"/>
<stop offset="0.89" stop-color="#CFCFCE"/>
<stop offset="0.94" stop-color="#C2C2C1"/>
<stop offset="0.97" stop-color="#B0B0AE"/>
<stop offset="1" stop-color="#9E9E9C"/>
</linearGradient>
<linearGradient id="paint36_linear_3789_34829" x1="5.88889" y1="31.8857" x2="5.88889" y2="31.5616" gradientUnits="userSpaceOnUse">
<stop stop-color="#A4A4A2"/>
<stop offset="0.4" stop-color="#C3C3C3"/>
<stop offset="0.73" stop-color="#D9D9D9"/>
<stop offset="0.84" stop-color="#D6D6D6"/>
<stop offset="0.9" stop-color="#CFCFCE"/>
<stop offset="0.94" stop-color="#C2C2C1"/>
<stop offset="0.98" stop-color="#B0B0AE"/>
<stop offset="1" stop-color="#A4A4A2"/>
</linearGradient>
<linearGradient id="paint37_linear_3789_34829" x1="5.88896" y1="31.8722" x2="5.88896" y2="31.5631" gradientUnits="userSpaceOnUse">
<stop stop-color="#AAAAA9"/>
<stop offset="0.36" stop-color="#C3C3C3"/>
<stop offset="0.73" stop-color="#D9D9D9"/>
<stop offset="0.84" stop-color="#D6D6D6"/>
<stop offset="0.9" stop-color="#CFCFCE"/>
<stop offset="0.95" stop-color="#C2C2C1"/>
<stop offset="0.99" stop-color="#AFAFAE"/>
<stop offset="1" stop-color="#AAAAA9"/>
</linearGradient>
<linearGradient id="paint38_linear_3789_34829" x1="5.88904" y1="31.8585" x2="5.88904" y2="31.5653" gradientUnits="userSpaceOnUse">
<stop stop-color="#B0B0AF"/>
<stop offset="0.32" stop-color="#C4C4C3"/>
<stop offset="0.73" stop-color="#DADAD9"/>
<stop offset="0.85" stop-color="#D7D7D6"/>
<stop offset="0.91" stop-color="#CFCFCE"/>
<stop offset="0.96" stop-color="#C2C2C1"/>
<stop offset="1" stop-color="#B0B0AF"/>
</linearGradient>
<linearGradient id="paint39_linear_3789_34829" x1="5.88946" y1="31.8457" x2="5.88946" y2="31.5675" gradientUnits="userSpaceOnUse">
<stop stop-color="#B6B6B5"/>
<stop offset="0.27" stop-color="#C4C4C4"/>
<stop offset="0.73" stop-color="#DADADA"/>
<stop offset="0.85" stop-color="#D7D7D7"/>
<stop offset="0.92" stop-color="#D0D0CF"/>
<stop offset="0.97" stop-color="#C3C3C2"/>
<stop offset="1" stop-color="#B6B6B5"/>
</linearGradient>
<linearGradient id="paint40_linear_3789_34829" x1="5.88881" y1="31.832" x2="5.88881" y2="31.5689" gradientUnits="userSpaceOnUse">
<stop stop-color="#BCBCBC"/>
<stop offset="0.18" stop-color="#C4C4C4"/>
<stop offset="0.73" stop-color="#DADADA"/>
<stop offset="0.86" stop-color="#D7D7D7"/>
<stop offset="0.93" stop-color="#CFCFCF"/>
<stop offset="0.98" stop-color="#C2C2C2"/>
<stop offset="1" stop-color="#BCBCBC"/>
</linearGradient>
<linearGradient id="paint41_linear_3789_34829" x1="5.88889" y1="31.8185" x2="5.88889" y2="31.5713" gradientUnits="userSpaceOnUse">
<stop stop-color="#C2C2C2"/>
<stop offset="0.06" stop-color="#C4C4C4"/>
<stop offset="0.73" stop-color="#DADADA"/>
<stop offset="0.87" stop-color="#D7D7D7"/>
<stop offset="0.94" stop-color="#CFCFCF"/>
<stop offset="1" stop-color="#C2C2C2"/>
</linearGradient>
<linearGradient id="paint42_linear_3789_34829" x1="5.88896" y1="31.8055" x2="5.88896" y2="31.5733" gradientUnits="userSpaceOnUse">
<stop stop-color="#C9C9C8"/>
<stop offset="0.73" stop-color="#DADADA"/>
<stop offset="0.88" stop-color="#D7D7D7"/>
<stop offset="0.96" stop-color="#D0D0CF"/>
<stop offset="1" stop-color="#C9C9C8"/>
</linearGradient>
<linearGradient id="paint43_linear_3789_34829" x1="5.88914" y1="31.7912" x2="5.88914" y2="31.5749" gradientUnits="userSpaceOnUse">
<stop stop-color="#CFCFCE"/>
<stop offset="0.73" stop-color="#DBDBDB"/>
<stop offset="0.89" stop-color="#D8D8D8"/>
<stop offset="0.98" stop-color="#D1D1D0"/>
<stop offset="1" stop-color="#CFCFCE"/>
</linearGradient>
<linearGradient id="paint44_linear_3789_34829" x1="5.88922" y1="31.7775" x2="5.88922" y2="31.5762" gradientUnits="userSpaceOnUse">
<stop stop-color="#D5D5D5"/>
<stop offset="0.73" stop-color="#DBDBDB"/>
<stop offset="0.94" stop-color="#D8D8D8"/>
<stop offset="1" stop-color="#D5D5D5"/>
</linearGradient>
<linearGradient id="paint45_linear_3789_34829" x1="22.1319" y1="-3.25604" x2="22.1319" y2="-3.25604" gradientUnits="userSpaceOnUse">
<stop stop-color="#5A5A57"/>
<stop offset="0.25" stop-color="#8A8A87"/>
<stop offset="0.57" stop-color="#C1C1C0"/>
<stop offset="0.73" stop-color="#D7D7D6"/>
<stop offset="0.82" stop-color="#D4D4D3"/>
<stop offset="0.86" stop-color="#CDCDCB"/>
<stop offset="0.9" stop-color="#BFBFBE"/>
<stop offset="0.93" stop-color="#ADADAB"/>
<stop offset="0.96" stop-color="#959593"/>
<stop offset="0.98" stop-color="#777775"/>
<stop offset="1" stop-color="#5A5A57"/>
</linearGradient>
<linearGradient id="paint46_linear_3789_34829" x1="22.1319" y1="-3.25627" x2="22.1319" y2="-3.25627" gradientUnits="userSpaceOnUse">
<stop stop-color="#60605D"/>
<stop offset="0.23" stop-color="#8A8A87"/>
<stop offset="0.57" stop-color="#C1C1C0"/>
<stop offset="0.73" stop-color="#D7D7D6"/>
<stop offset="0.82" stop-color="#D4D4D3"/>
<stop offset="0.86" stop-color="#CDCDCB"/>
<stop offset="0.9" stop-color="#C0C0BE"/>
<stop offset="0.93" stop-color="#ADADAB"/>
<stop offset="0.96" stop-color="#959593"/>
<stop offset="0.98" stop-color="#777775"/>
<stop offset="1" stop-color="#60605D"/>
</linearGradient>
<linearGradient id="paint47_linear_3789_34829" x1="22.1315" y1="-3.25592" x2="22.1315" y2="-3.25592" gradientUnits="userSpaceOnUse">
<stop stop-color="#666664"/>
<stop offset="0.21" stop-color="#898987"/>
<stop offset="0.56" stop-color="#C1C1C0"/>
<stop offset="0.73" stop-color="#D7D7D6"/>
<stop offset="0.82" stop-color="#D4D4D3"/>
<stop offset="0.87" stop-color="#CDCDCB"/>
<stop offset="0.9" stop-color="#BFBFBE"/>
<stop offset="0.93" stop-color="#ADADAB"/>
<stop offset="0.96" stop-color="#949493"/>
<stop offset="0.99" stop-color="#777775"/>
<stop offset="1" stop-color="#666664"/>
</linearGradient>
<linearGradient id="paint48_linear_3789_34829" x1="22.1316" y1="-3.25599" x2="22.1316" y2="-3.25599" gradientUnits="userSpaceOnUse">
<stop stop-color="#6C6C6A"/>
<stop offset="0.18" stop-color="#8A8A88"/>
<stop offset="0.55" stop-color="#C2C2C1"/>
<stop offset="0.73" stop-color="#D8D8D7"/>
<stop offset="0.82" stop-color="#D5D5D4"/>
<stop offset="0.87" stop-color="#CECECC"/>
<stop offset="0.9" stop-color="#C0C0BF"/>
<stop offset="0.94" stop-color="#AEAEAC"/>
<stop offset="0.97" stop-color="#959594"/>
<stop offset="0.99" stop-color="#787876"/>
<stop offset="1" stop-color="#6C6C6A"/>
</linearGradient>
<linearGradient id="paint49_linear_3789_34829" x1="22.1317" y1="-3.25647" x2="22.1317" y2="-3.25647" gradientUnits="userSpaceOnUse">
<stop stop-color="#737370"/>
<stop offset="0.16" stop-color="#8B8B88"/>
<stop offset="0.54" stop-color="#C2C2C1"/>
<stop offset="0.73" stop-color="#D8D8D7"/>
<stop offset="0.82" stop-color="#D5D5D4"/>
<stop offset="0.87" stop-color="#CECECC"/>
<stop offset="0.91" stop-color="#C1C1BF"/>
<stop offset="0.94" stop-color="#AEAEAC"/>
<stop offset="0.97" stop-color="#969694"/>
<stop offset="1" stop-color="#737370"/>
</linearGradient>
<linearGradient id="paint50_linear_3789_34829" x1="22.1318" y1="-3.25653" x2="22.1318" y2="-3.25653" gradientUnits="userSpaceOnUse">
<stop stop-color="#797976"/>
<stop offset="0.13" stop-color="#8B8B88"/>
<stop offset="0.53" stop-color="#C2C2C1"/>
<stop offset="0.73" stop-color="#D8D8D7"/>
<stop offset="0.82" stop-color="#D5D5D4"/>
<stop offset="0.87" stop-color="#CECECC"/>
<stop offset="0.91" stop-color="#C1C1BF"/>
<stop offset="0.94" stop-color="#AEAEAC"/>
<stop offset="0.97" stop-color="#969694"/>
<stop offset="1" stop-color="#797976"/>
</linearGradient>
<linearGradient id="paint51_linear_3789_34829" x1="22.1319" y1="-3.25582" x2="22.1319" y2="-3.25582" gradientUnits="userSpaceOnUse">
<stop stop-color="#7F7F7D"/>
<stop offset="0.08" stop-color="#8A8A88"/>
<stop offset="0.52" stop-color="#C2C2C1"/>
<stop offset="0.73" stop-color="#D8D8D7"/>
<stop offset="0.82" stop-color="#D5D5D4"/>
<stop offset="0.88" stop-color="#CECECC"/>
<stop offset="0.91" stop-color="#C0C0BF"/>
<stop offset="0.95" stop-color="#AEAEAC"/>
<stop offset="0.98" stop-color="#969694"/>
<stop offset="1" stop-color="#7F7F7D"/>
</linearGradient>
<linearGradient id="paint52_linear_3789_34829" x1="22.1316" y1="-3.25617" x2="22.1316" y2="-3.25617" gradientUnits="userSpaceOnUse">
<stop stop-color="#858583"/>
<stop offset="0.05" stop-color="#8B8B89"/>
<stop offset="0.51" stop-color="#C2C2C2"/>
<stop offset="0.73" stop-color="#D8D8D8"/>
<stop offset="0.83" stop-color="#D5D5D5"/>
<stop offset="0.88" stop-color="#CECECD"/>
<stop offset="0.92" stop-color="#C1C1C0"/>
<stop offset="0.95" stop-color="#AEAEAD"/>
<stop offset="0.98" stop-color="#969695"/>
<stop offset="1" stop-color="#858583"/>
</linearGradient>
<linearGradient id="paint53_linear_3789_34829" x1="22.1316" y1="-3.25607" x2="22.1316" y2="-3.25607" gradientUnits="userSpaceOnUse">
<stop stop-color="#8B8B89"/>
<stop offset="0.49" stop-color="#C3C3C2"/>
<stop offset="0.73" stop-color="#D9D9D8"/>
<stop offset="0.83" stop-color="#D6D6D5"/>
<stop offset="0.88" stop-color="#CFCFCD"/>
<stop offset="0.92" stop-color="#C1C1C0"/>
<stop offset="0.96" stop-color="#AFAFAD"/>
<stop offset="0.99" stop-color="#979795"/>
<stop offset="1" stop-color="#8B8B89"/>
</linearGradient>
<linearGradient id="paint54_linear_3789_34829" x1="22.1317" y1="-3.25603" x2="22.1317" y2="-3.25603" gradientUnits="userSpaceOnUse">
<stop stop-color="#919190"/>
<stop offset="0.47" stop-color="#C3C3C2"/>
<stop offset="0.73" stop-color="#D9D9D8"/>
<stop offset="0.83" stop-color="#D6D6D5"/>
<stop offset="0.88" stop-color="#CECECD"/>
<stop offset="0.93" stop-color="#C1C1C0"/>
<stop offset="0.96" stop-color="#AEAEAD"/>
<stop offset="0.99" stop-color="#969695"/>
<stop offset="1" stop-color="#919190"/>
</linearGradient>
<linearGradient id="paint55_linear_3789_34829" x1="22.1318" y1="-3.25639" x2="22.1318" y2="-3.25639" gradientUnits="userSpaceOnUse">
<stop stop-color="#979796"/>
<stop offset="0.45" stop-color="#C3C3C2"/>
<stop offset="0.73" stop-color="#D9D9D8"/>
<stop offset="0.83" stop-color="#D6D6D5"/>
<stop offset="0.89" stop-color="#CECECD"/>
<stop offset="0.93" stop-color="#C1C1C0"/>
<stop offset="0.97" stop-color="#AEAEAD"/>
<stop offset="1" stop-color="#979796"/>
</linearGradient>
<linearGradient id="paint56_linear_3789_34829" x1="22.1312" y1="-3.25661" x2="22.1312" y2="-3.25661" gradientUnits="userSpaceOnUse">
<stop stop-color="#9E9E9C"/>
<stop offset="0.43" stop-color="#C3C3C3"/>
<stop offset="0.73" stop-color="#D9D9D9"/>
<stop offset="0.84" stop-color="#D6D6D6"/>
<stop offset="0.89" stop-color="#CFCFCE"/>
<stop offset="0.94" stop-color="#C2C2C1"/>
<stop offset="0.97" stop-color="#B0B0AE"/>
<stop offset="1" stop-color="#9E9E9C"/>
</linearGradient>
<linearGradient id="paint57_linear_3789_34829" x1="22.1313" y1="-3.25629" x2="22.1313" y2="-3.25629" gradientUnits="userSpaceOnUse">
<stop stop-color="#A4A4A2"/>
<stop offset="0.4" stop-color="#C3C3C3"/>
<stop offset="0.73" stop-color="#D9D9D9"/>
<stop offset="0.84" stop-color="#D6D6D6"/>
<stop offset="0.9" stop-color="#CFCFCE"/>
<stop offset="0.94" stop-color="#C2C2C1"/>
<stop offset="0.98" stop-color="#B0B0AE"/>
<stop offset="1" stop-color="#A4A4A2"/>
</linearGradient>
<linearGradient id="paint58_linear_3789_34829" x1="22.1314" y1="-3.25622" x2="22.1314" y2="-3.25622" gradientUnits="userSpaceOnUse">
<stop stop-color="#AAAAA9"/>
<stop offset="0.36" stop-color="#C3C3C3"/>
<stop offset="0.73" stop-color="#D9D9D9"/>
<stop offset="0.84" stop-color="#D6D6D6"/>
<stop offset="0.9" stop-color="#CFCFCE"/>
<stop offset="0.95" stop-color="#C2C2C1"/>
<stop offset="0.99" stop-color="#AFAFAE"/>
<stop offset="1" stop-color="#AAAAA9"/>
</linearGradient>
<linearGradient id="paint59_linear_3789_34829" x1="22.1315" y1="-3.25659" x2="22.1315" y2="-3.25659" gradientUnits="userSpaceOnUse">
<stop stop-color="#B0B0AF"/>
<stop offset="0.32" stop-color="#C4C4C3"/>
<stop offset="0.73" stop-color="#DADAD9"/>
<stop offset="0.85" stop-color="#D7D7D6"/>
<stop offset="0.91" stop-color="#CFCFCE"/>
<stop offset="0.96" stop-color="#C2C2C1"/>
<stop offset="1" stop-color="#B0B0AF"/>
</linearGradient>
<linearGradient id="paint60_linear_3789_34829" x1="22.1315" y1="-3.25592" x2="22.1315" y2="-3.25592" gradientUnits="userSpaceOnUse">
<stop stop-color="#B6B6B5"/>
<stop offset="0.27" stop-color="#C4C4C4"/>
<stop offset="0.73" stop-color="#DADADA"/>
<stop offset="0.85" stop-color="#D7D7D7"/>
<stop offset="0.92" stop-color="#D0D0CF"/>
<stop offset="0.97" stop-color="#C3C3C2"/>
<stop offset="1" stop-color="#B6B6B5"/>
</linearGradient>
<linearGradient id="paint61_linear_3789_34829" x1="22.1312" y1="-3.25663" x2="22.1312" y2="-3.25663" gradientUnits="userSpaceOnUse">
<stop stop-color="#BCBCBC"/>
<stop offset="0.18" stop-color="#C4C4C4"/>
<stop offset="0.73" stop-color="#DADADA"/>
<stop offset="0.86" stop-color="#D7D7D7"/>
<stop offset="0.93" stop-color="#CFCFCF"/>
<stop offset="0.98" stop-color="#C2C2C2"/>
<stop offset="1" stop-color="#BCBCBC"/>
</linearGradient>
<linearGradient id="paint62_linear_3789_34829" x1="22.1313" y1="-3.25652" x2="22.1313" y2="-3.25652" gradientUnits="userSpaceOnUse">
<stop stop-color="#C2C2C2"/>
<stop offset="0.06" stop-color="#C4C4C4"/>
<stop offset="0.73" stop-color="#DADADA"/>
<stop offset="0.87" stop-color="#D7D7D7"/>
<stop offset="0.94" stop-color="#CFCFCF"/>
<stop offset="1" stop-color="#C2C2C2"/>
</linearGradient>
<linearGradient id="paint63_linear_3789_34829" x1="22.1314" y1="-3.25623" x2="22.1314" y2="-3.25623" gradientUnits="userSpaceOnUse">
<stop stop-color="#C9C9C8"/>
<stop offset="0.73" stop-color="#DADADA"/>
<stop offset="0.88" stop-color="#D7D7D7"/>
<stop offset="0.96" stop-color="#D0D0CF"/>
<stop offset="1" stop-color="#C9C9C8"/>
</linearGradient>
<linearGradient id="paint64_linear_3789_34829" x1="22.1315" y1="-3.25649" x2="22.1315" y2="-3.25649" gradientUnits="userSpaceOnUse">
<stop stop-color="#CFCFCE"/>
<stop offset="0.73" stop-color="#DBDBDB"/>
<stop offset="0.89" stop-color="#D8D8D8"/>
<stop offset="0.98" stop-color="#D1D1D0"/>
<stop offset="1" stop-color="#CFCFCE"/>
</linearGradient>
<linearGradient id="paint65_linear_3789_34829" x1="22.1317" y1="-3.25646" x2="22.1317" y2="-3.25646" gradientUnits="userSpaceOnUse">
<stop stop-color="#D5D5D5"/>
<stop offset="0.73" stop-color="#DBDBDB"/>
<stop offset="0.94" stop-color="#D8D8D8"/>
<stop offset="1" stop-color="#D5D5D5"/>
</linearGradient>
<linearGradient id="paint66_linear_3789_34829" x1="25.6464" y1="15.4358" x2="28.2916" y2="14.6841" gradientUnits="userSpaceOnUse">
<stop stop-color="#444443"/>
<stop offset="0.09" stop-color="#444443"/>
<stop offset="0.69" stop-color="#1C1C1B"/>
<stop offset="0.99"/>
</linearGradient>
<linearGradient id="paint67_linear_3789_34829" x1="2.43445" y1="15.4358" x2="-0.209895" y2="14.6841" gradientUnits="userSpaceOnUse">
<stop/>
<stop offset="0.31" stop-color="#1C1C1B"/>
<stop offset="0.63" stop-color="#444443"/>
<stop offset="0.75" stop-color="#545453"/>
<stop offset="0.87" stop-color="#686867"/>
</linearGradient>
<radialGradient id="paint68_radial_3789_34829" cx="0" cy="0" r="1" gradientUnits="userSpaceOnUse" gradientTransform="translate(5.13447 8.96755) scale(12.2236)">
<stop stop-color="white"/>
<stop offset="0.02" stop-color="#F7F7F7"/>
<stop offset="0.16" stop-color="#D3D3D3"/>
<stop offset="0.3" stop-color="#B4B4B4"/>
<stop offset="0.45" stop-color="#9D9D9D"/>
<stop offset="0.6" stop-color="#8C8C8C"/>
<stop offset="0.78" stop-color="#838383"/>
<stop offset="1" stop-color="#808080"/>
</radialGradient>
<linearGradient id="paint69_linear_3789_34829" x1="18.6111" y1="14.1903" x2="23.6834" y2="14.1903" gradientUnits="userSpaceOnUse">
<stop stop-color="#98989D"/>
<stop offset="0.48" stop-color="#8A8A8C"/>
<stop offset="1" stop-color="#808080"/>
</linearGradient>
<linearGradient id="paint70_linear_3789_34829" x1="2.87866" y1="12.6121" x2="10.9311" y2="12.6121" gradientUnits="userSpaceOnUse">
<stop stop-color="white"/>
<stop offset="0.17" stop-color="#E5E5E5"/>
<stop offset="0.55" stop-color="#AEAEAE"/>
<stop offset="0.84" stop-color="#8C8C8C"/>
<stop offset="1" stop-color="#808080"/>
</linearGradient>
<radialGradient id="paint71_radial_3789_34829" cx="0" cy="0" r="1" gradientUnits="userSpaceOnUse" gradientTransform="translate(24.4794 12.8992) scale(0.753912 10.115)">
<stop stop-color="white"/>
<stop offset="0.17" stop-color="#E5E5E5"/>
<stop offset="0.55" stop-color="#AEAEAE"/>
<stop offset="0.84" stop-color="#8C8C8C"/>
<stop offset="1" stop-color="#808080"/>
</radialGradient>
<radialGradient id="paint72_radial_3789_34829" cx="0" cy="0" r="1" gradientUnits="userSpaceOnUse" gradientTransform="translate(4.02583 11.5752) scale(0.811277 6.80893)">
<stop stop-color="white"/>
<stop offset="0.17" stop-color="#E5E5E5"/>
<stop offset="0.55" stop-color="#AEAEAE"/>
<stop offset="0.84" stop-color="#8C8C8C"/>
<stop offset="1" stop-color="#808080"/>
</radialGradient>
<linearGradient id="paint73_linear_3789_34829" x1="13.183" y1="27.0737" x2="14.5653" y2="27.0737" gradientUnits="userSpaceOnUse">
<stop stop-color="#808080"/>
<stop offset="0.19" stop-color="#B1ACB3"/>
<stop offset="0.2" stop-color="#9A969C"/>
<stop offset="0.22" stop-color="#716E73"/>
<stop offset="0.25" stop-color="#4E4C4F"/>
<stop offset="0.28" stop-color="#313032"/>
<stop offset="0.3" stop-color="#1B1B1C"/>
<stop offset="0.33" stop-color="#0C0B0C"/>
<stop offset="0.37" stop-color="#020202"/>
<stop offset="0.42"/>
<stop offset="0.46" stop-color="#050404"/>
<stop offset="0.5" stop-color="#131211"/>
<stop offset="0.55" stop-color="#2B2A27"/>
<stop offset="0.6" stop-color="#4D4A45"/>
<stop offset="0.65" stop-color="#78746C"/>
<stop offset="0.71" stop-color="#ADA69B"/>
<stop offset="0.72" stop-color="#BFB8AC"/>
<stop offset="0.79" stop-color="#A6A19A"/>
<stop offset="0.86" stop-color="#918F8B"/>
<stop offset="0.93" stop-color="#848382"/>
<stop offset="1" stop-color="#808080"/>
</linearGradient>
<linearGradient id="paint74_linear_3789_34829" x1="13.9707" y1="29.495" x2="13.9707" y2="28.7893" gradientUnits="userSpaceOnUse">
<stop stop-color="#808080"/>
<stop offset="0.31" stop-color="#686A6B"/>
<stop offset="0.55" stop-color="#5B5D60"/>
<stop offset="0.99" stop-color="#2B2C2F"/>
</linearGradient>
<linearGradient id="paint75_linear_3789_34829" x1="2.17644" y1="16.8448" x2="4.10582" y2="16.8448" gradientUnits="userSpaceOnUse">
<stop stop-color="#D2D5D5"/>
<stop offset="0.12" stop-color="#DCDEDE"/>
<stop offset="0.4" stop-color="#EFF0F0"/>
<stop offset="0.7" stop-color="#FBFBFB"/>
<stop offset="1" stop-color="white"/>
</linearGradient>
</defs>
</svg>
