<svg width="34" height="100" viewBox="0 0 34 100" fill="none" xmlns="http://www.w3.org/2000/svg">
<path d="M33 99L33 1L1.00001 0.999997L1 99L33 99Z" fill="white" stroke="white" stroke-width="2"/>
<path d="M30.8853 97.2773L30.8853 2.72179L3.11603 2.72178L3.11603 97.2773L30.8853 97.2773Z" stroke="black"/>
<path d="M31.3853 97.7773L31.3853 53.3329L2.61603 53.3329L2.61603 97.7773L31.3853 97.7773Z" fill="black"/>
<path d="M31.3853 11.1104L31.3853 8.88813L2.61603 8.88813L2.61603 11.1103L31.3853 11.1104Z" fill="black"/>
<path d="M31.3853 20L31.3853 17.7778L2.61603 17.7778L2.61603 20L31.3853 20Z" fill="black"/>
<path d="M31.3853 28.8872L31.3853 26.665L2.61603 26.665L2.61603 28.8872L31.3853 28.8872Z" fill="black"/>
<path d="M31.3853 37.7783L31.3853 35.5561L2.61603 35.5561L2.61603 37.7783L31.3853 37.7783Z" fill="black"/>
<path d="M31.3853 46.6646L31.3853 44.4423L2.61603 44.4423L2.61603 46.6645L31.3853 46.6646Z" fill="black"/>
</svg>
