<svg width="64" height="64" viewBox="0 0 64 64" fill="none" xmlns="http://www.w3.org/2000/svg">
<path fill-rule="evenodd" clip-rule="evenodd" d="M23.7309 49.9351C32.3811 51.1401 34.6266 56.0836 34.6266 62.0001H4C4 56.0836 6.2454 51.14 14.8957 49.9351C15.8601 51.4503 17.2754 52.3466 19.3134 52.3466C21.3512 52.3466 22.7666 51.4503 23.7309 49.9351Z" fill="#61A600"/>
<path fill-rule="evenodd" clip-rule="evenodd" d="M26.4625 34.203C28.0734 35.8787 29.0585 38.1214 29.0585 40.5862C29.0585 45.7744 24.6956 49.9803 19.3137 49.9803C13.9317 49.9803 9.56885 45.7744 9.56885 40.5862C9.56885 38.1214 10.554 35.8787 12.1649 34.203C14.2368 34.4604 16.6871 34.6093 19.3137 34.6093C21.9402 34.6093 24.3905 34.4604 26.4625 34.203Z" fill="#61A600"/>
<path fill-rule="evenodd" clip-rule="evenodd" d="M26.2725 29.4243V31.789C24.2552 32.0548 21.8693 32.2086 19.3119 32.2086C16.7545 32.2086 14.3686 32.0548 12.3513 31.789V29.4243L17.2111 30.5734C18.6588 30.9157 19.9649 30.9157 21.4126 30.5734L26.2725 29.4243Z" fill="#61A600"/>
<path fill-rule="evenodd" clip-rule="evenodd" d="M4.33349 25.422L17.2995 22.2543C18.6873 21.9152 19.9393 21.9152 21.3271 22.2543L34.2931 25.422C34.4907 25.4702 34.6266 25.6508 34.6266 25.865C34.6266 26.0792 34.4907 26.2598 34.2931 26.3081L31.6131 26.9629V32.6175L33.0571 35.2596C33.2579 35.626 33.1396 36.0952 32.7927 36.3073C32.4459 36.5195 32.0018 36.3945 31.801 36.0281L31.6131 35.6844V36.0806C31.6131 36.5051 31.2873 36.8493 30.8855 36.8493C30.4837 36.8493 30.1579 36.5051 30.1579 36.0806V35.6842L29.9701 36.0279C29.7693 36.3943 29.3251 36.5193 28.9783 36.3072C28.6315 36.095 28.5132 35.6258 28.714 35.2594L30.1579 32.6174V27.3183L21.3271 29.4758C19.9393 29.8148 18.6873 29.8148 17.2995 29.4758L4.33349 26.3081C4.13593 26.2598 4 26.0792 4 25.865C4 25.6508 4.13584 25.4702 4.33349 25.422Z" fill="#61A600"/>
<circle cx="49" cy="15" r="15" fill="#61A600"/>
<path fill-rule="evenodd" clip-rule="evenodd" d="M58.3467 9.31017L45.3259 22.982L39.6521 17.0245L41.2038 15.5466L45.3259 19.8748L56.795 7.83234L58.3467 9.31017Z" fill="white"/>
</svg>
